<svg xmlns="http://www.w3.org/2000/svg" viewBox="0 0 100 100"><defs><style>.cls-1{fill:#ffd655;}</style></defs><title>buttcoin_2</title><g id="Layer_2" data-name="Layer 2"><g id="Layer_2-2" data-name="Layer 2"><circle class="cls-1" cx="50" cy="50" r="50"/><path d="M54,80a4.5,4.5,0,0,1-2.25-8.39,22.83,22.83,0,0,0-5.43-41.84,4.49,4.49,0,1,1,2.34-8.68A31.82,31.82,0,0,1,56.25,79.4,4.4,4.4,0,0,1,54,80Z"/><path d="M61.24,37.77a4.49,4.49,0,0,1-3.82-6.85c3.7-6,10.1-9.33,10.82-9.69a4.49,4.49,0,0,1,4,8c-.1,0-4.82,2.49-7.2,6.37A4.5,4.5,0,0,1,61.24,37.77Z"/></g></g></svg>