<svg width="27" height="20" viewBox="0 0 27 20" version="1.1" xmlns="http://www.w3.org/2000/svg" xmlns:xlink="http://www.w3.org/1999/xlink">
<title>eyeball</title>
<desc>Created using Figma</desc>
<g id="Canvas" transform="translate(-1124 1020)">
<g id="eyeball">
<mask id="mask0_outline_out">
<rect id="mask0_outline_inv" fill="white" x="-3" y="-2" width="27" height="20" transform="translate(1127 -1018)"/>
<use xlink:href="#path0_fill" fill="black" transform="translate(1127 -1018)"/>
</mask>
<g mask="url(#mask0_outline_out)">
<use xlink:href="#path1_stroke_2x" transform="translate(1127 -1018)" fill="#6A40EE"/>
</g>
</g>
</g>
<defs>
<path id="path0_fill" d="M 10.6667 0C 4.05333 0 0 8 0 8C 0 8 4.05333 16 10.6667 16C 17.28 16 21.3333 8 21.3333 8C 21.3333 8 17.28 0 10.6667 0ZM 10.6667 13.6986C 7.60889 13.6986 5.12 11.1416 5.12 8C 5.12 4.85845 7.60889 2.30137 10.6667 2.30137C 13.7244 2.30137 16.2133 4.85845 16.2133 8C 16.2133 11.1416 13.7244 13.6986 10.6667 13.6986ZM 13.9733 8C 13.9733 9.86301 12.48 11.3973 10.6667 11.3973C 8.85333 11.3973 7.36 9.86301 7.36 8C 7.36 6.13699 8.85333 4.60274 10.6667 4.60274C 12.48 4.60274 13.9733 6.13699 13.9733 8Z"/>
<path id="path1_stroke_2x" d="M 0 8L -1.78407 7.09607L -2.24206 8L -1.78407 8.90393L 0 8ZM 21.3333 8L 23.1174 8.90393L 23.5754 8L 23.1174 7.09607L 21.3333 8ZM 10.6667 -2C 6.52881 -2 3.36527 0.489583 1.38147 2.64589C 0.380312 3.73979 -0.435131 4.87726 -0.944475 5.6666C -1.20743 6.07537 -1.42113 6.43735 -1.55367 6.67148C -1.62357 6.79518 -1.68195 6.90233 -1.71692 6.96776C -1.73609 7.00367 -1.75305 7.03598 -1.7626 7.05435C -1.76819 7.06509 -1.7736 7.07558 -1.77638 7.081C -1.77816 7.08448 -1.7801 7.08826 -1.78099 7.09C -1.78163 7.09126 -1.7824 7.09278 -1.78272 7.09341C -1.78298 7.09391 -1.78331 7.09458 -1.78344 7.09483C -1.78377 7.09547 -1.78407 7.09607 0 8C 1.78407 8.90393 1.7838 8.90447 1.78354 8.90499C 1.78347 8.90512 1.78322 8.9056 1.78309 8.90586C 1.78316 8.90572 1.78232 8.90737 1.78247 8.90708C 1.78237 8.90728 1.78212 8.90777 1.7823 8.90741C 1.78347 8.90513 1.78398 8.90415 1.78626 8.89976C 1.79245 8.88785 1.79905 8.87524 1.81119 8.85255C 1.83882 8.8008 1.87399 8.73607 1.92784 8.64102C 2.0428 8.43765 2.19743 8.17463 2.41781 7.8334C 2.87513 7.12274 3.48635 6.26021 4.3252 5.35411C 6.0214 3.51042 8.1912 2 10.6667 2L 10.6667 -2ZM 0 8C -1.78407 8.90393 -1.78377 8.90453 -1.78344 8.90517C -1.78331 8.90542 -1.78298 8.90609 -1.78272 8.90659C -1.7824 8.90722 -1.78163 8.90874 -1.78099 8.91C -1.7801 8.91174 -1.77816 8.91552 -1.77638 8.919C -1.7736 8.92442 -1.76819 8.93491 -1.7626 8.94565C -1.75305 8.96402 -1.73609 8.99633 -1.71692 9.03224C -1.68195 9.09767 -1.62357 9.20482 -1.55367 9.32852C -1.42113 9.56265 -1.20743 9.92463 -0.944475 10.3334C -0.435131 11.1227 0.380312 12.2602 1.38147 13.3541C 3.36527 15.5104 6.52881 18 10.6667 18L 10.6667 14C 8.1912 14 6.0214 12.4896 4.3252 10.6459C 3.48635 9.73979 2.87513 8.87726 2.41781 8.1666C 2.19743 7.82537 2.0428 7.56235 1.92784 7.35898C 1.87399 7.26393 1.83882 7.1992 1.81119 7.14745C 1.79905 7.12476 1.79245 7.11215 1.78626 7.10024C 1.78398 7.09585 1.78347 7.09487 1.7823 7.09259C 1.78212 7.09223 1.78237 7.09272 1.78247 7.09292C 1.78232 7.09263 1.78316 7.09428 1.78309 7.09414C 1.78322 7.0944 1.78347 7.09488 1.78354 7.09501C 1.7838 7.09553 1.78407 7.09607 0 8ZM 10.6667 18C 14.8045 18 17.9681 15.5104 19.9519 13.3541C 20.953 12.2602 21.7685 11.1227 22.2778 10.3334C 22.5408 9.92463 22.7545 9.56265 22.887 9.32852C 22.9569 9.20482 23.0153 9.09767 23.0503 9.03224C 23.0694 8.99633 23.0864 8.96402 23.0959 8.94565C 23.1015 8.93491 23.1069 8.92442 23.1097 8.919C 23.1115 8.91552 23.1134 8.91174 23.1143 8.91C 23.115 8.90874 23.1157 8.90722 23.1161 8.90659C 23.1163 8.90609 23.1166 8.90542 23.1168 8.90517C 23.1171 8.90453 23.1174 8.90393 21.3333 8C 19.5493 7.09607 19.5495 7.09553 19.5498 7.09501C 19.5499 7.09488 19.5501 7.0944 19.5502 7.09414C 19.5502 7.09428 19.551 7.09263 19.5509 7.09292C 19.551 7.09272 19.5512 7.09223 19.551 7.09259C 19.5499 7.09487 19.5494 7.09585 19.5471 7.10024C 19.5409 7.11215 19.5343 7.12476 19.5221 7.14745C 19.4945 7.1992 19.4593 7.26393 19.4055 7.35898C 19.2905 7.56235 19.1359 7.82537 18.9155 8.1666C 18.4582 8.87726 17.847 9.73979 17.0081 10.6459C 15.3119 12.4896 13.1421 14 10.6667 14L 10.6667 18ZM 21.3333 8C 23.1174 7.09607 23.1171 7.09547 23.1168 7.09483C 23.1166 7.09458 23.1163 7.09391 23.1161 7.09341C 23.1157 7.09278 23.115 7.09126 23.1143 7.09C 23.1134 7.08826 23.1115 7.08448 23.1097 7.081C 23.1069 7.07558 23.1015 7.06509 23.0959 7.05435C 23.0864 7.03598 23.0694 7.00367 23.0503 6.96776C 23.0153 6.90233 22.9569 6.79518 22.887 6.67148C 22.7545 6.43735 22.5408 6.07537 22.2778 5.6666C 21.7685 4.87726 20.953 3.73979 19.9519 2.64589C 17.9681 0.489583 14.8045 -2 10.6667 -2L 10.6667 2C 13.1421 2 15.3119 3.51042 17.0081 5.35411C 17.847 6.26021 18.4582 7.12274 18.9155 7.8334C 19.1359 8.17463 19.2905 8.43765 19.4055 8.64102C 19.4593 8.73607 19.4945 8.8008 19.5221 8.85255C 19.5343 8.87524 19.5409 8.88785 19.5471 8.89976C 19.5494 8.90415 19.5499 8.90513 19.551 8.90741C 19.5512 8.90777 19.551 8.90728 19.5509 8.90708C 19.551 8.90737 19.5502 8.90572 19.5502 8.90586C 19.5501 8.9056 19.5499 8.90512 19.5498 8.90499C 19.5495 8.90447 19.5493 8.90393 21.3333 8ZM 10.6667 11.6986C 8.76407 11.6986 7.12 10.0883 7.12 8L 3.12 8C 3.12 12.1948 6.45371 15.6986 10.6667 15.6986L 10.6667 11.6986ZM 7.12 8C 7.12 5.91171 8.76407 4.30137 10.6667 4.30137L 10.6667 0.30137C 6.45371 0.30137 3.12 3.80518 3.12 8L 7.12 8ZM 10.6667 4.30137C 12.5693 4.30137 14.2133 5.91171 14.2133 8L 18.2133 8C 18.2133 3.80518 14.8796 0.30137 10.6667 0.30137L 10.6667 4.30137ZM 14.2133 8C 14.2133 10.0883 12.5693 11.6986 10.6667 11.6986L 10.6667 15.6986C 14.8796 15.6986 18.2133 12.1948 18.2133 8L 14.2133 8ZM 11.9733 8C 11.9733 8.80975 11.3248 9.39726 10.6667 9.39726L 10.6667 13.3973C 13.6352 13.3973 15.9733 10.9163 15.9733 8L 11.9733 8ZM 10.6667 9.39726C 10.0085 9.39726 9.36 8.80975 9.36 8L 5.36 8C 5.36 10.9163 7.69815 13.3973 10.6667 13.3973L 10.6667 9.39726ZM 9.36 8C 9.36 7.19025 10.0085 6.60274 10.6667 6.60274L 10.6667 2.60274C 7.69815 2.60274 5.36 5.08372 5.36 8L 9.36 8ZM 10.6667 6.60274C 11.3248 6.60274 11.9733 7.19025 11.9733 8L 15.9733 8C 15.9733 5.08372 13.6352 2.60274 10.6667 2.60274L 10.6667 6.60274Z"/>
</defs>
</svg>
