<svg width="27" height="27" viewBox="0 0 27 27" version="1.1" xmlns="http://www.w3.org/2000/svg" xmlns:xlink="http://www.w3.org/1999/xlink">
<title>icon-phone-chomment</title>
<desc>Created using Figma</desc>
<g id="Canvas" transform="translate(1437 1955)">
<g id="icon-phone-chomment">
<use xlink:href="#path0_fill" transform="translate(-1437 -1955)" fill="#FFFFFF"/>
<use xlink:href="#path1_fill" transform="translate(-1437 -1955)" fill="#FFFFFF"/>
</g>
</g>
<defs>
<path id="path0_fill" d="M 2.94124 0.0482319C 1.35336 0.0482319 0.0541891 1.3018 0.00607158 2.84465C -0.0420459 4.77322 0.198542 6.70177 0.631599 8.58213C 3.18183 19.0928 12.6129 26.9036 23.9205 27C 23.9686 27 24.0648 27 24.1129 27C 24.2573 27 24.4017 26.9518 24.4979 26.9035C 25.8933 26.7107 27 25.5536 27 24.1071L 27 18.3214C 27 16.7304 25.7008 15.4286 24.1129 15.4286L 20.2635 15.4286C 19.5899 15.4286 19.4937 15.7179 19.3974 15.8625C 19.3012 16.0071 19.205 16.1036 19.1087 16.2482C 18.9163 16.5375 18.7719 16.8268 18.5794 17.1643C 18.3388 17.5982 18.1945 17.791 18.0501 18.0321C 13.912 16.1518 10.64 13.0178 8.95593 8.91963C 9.1484 8.82321 9.24464 8.77499 9.48522 8.67856C 9.87016 8.48571 10.3032 8.34106 10.64 8.09999C 10.8325 8.00356 11.025 7.85893 11.1693 7.66607C 11.3618 7.47322 11.5543 7.18392 11.5543 6.74999L 11.5543 2.89285C 11.5543 1.30178 10.2551 0 8.66723 0L 2.94124 0L 2.94124 0.0482319ZM 2.94124 1.9768L 8.71534 1.9768C 9.24464 1.9768 9.67769 2.41073 9.67769 2.94109L 9.67769 6.50892C 9.67769 6.50892 9.67769 6.50894 9.62958 6.55715C 9.43711 6.7018 9.05217 6.84644 8.66723 7.0393C 8.28228 7.23215 7.89734 7.37678 7.56052 7.56964C 7.41617 7.66607 7.2237 7.76249 7.03123 7.95535C 6.93499 8.05178 6.79064 8.19644 6.74252 8.48572C 6.69441 8.67858 6.74252 8.91963 6.83876 9.16071L 6.79064 9.1125C 8.66723 14.3196 12.8053 18.1768 17.9058 20.2982C 18.2426 20.4429 18.6276 20.3946 18.9163 20.1535C 19.5418 19.575 19.8305 18.9 20.2154 18.225C 20.3598 17.9357 20.5523 17.6464 20.6485 17.4536L 24.0648 17.4536C 24.5941 17.4536 25.0272 17.8875 25.0272 18.4178L 25.0272 24.2036C 25.0272 24.7339 24.5941 25.1678 24.0648 25.1678C 13.6233 25.1678 4.86594 17.9357 2.50818 8.19642C 2.07512 6.50892 1.88265 4.725 1.93077 2.98929C 1.97889 2.41072 2.36383 1.9768 2.94124 1.9768ZM 20.841 17.1643C 20.841 17.1643 20.841 17.2125 20.7447 17.2607C 20.7928 17.2125 20.841 17.1643 20.841 17.1643Z"/>
<path id="path1_fill" d="M 2.94124 1.9768L 8.71534 1.9768C 9.24464 1.9768 9.67769 2.41073 9.67769 2.94109L 9.67769 6.50892L 9.62958 6.55715C 9.43711 6.7018 9.05217 6.84644 8.66723 7.0393C 8.28228 7.23215 7.89734 7.37678 7.56052 7.56964C 7.41617 7.66607 7.2237 7.76249 7.03123 7.95535C 6.93499 8.05178 6.79064 8.19644 6.74252 8.48572C 6.69441 8.67858 6.74252 8.91963 6.83876 9.16071L 6.79064 9.1125C 8.66723 14.3196 12.8053 18.1768 17.9058 20.2982C 18.2426 20.4429 18.6276 20.3946 18.9163 20.1535C 19.5418 19.575 19.8305 18.9 20.2154 18.225C 20.3598 17.9357 20.5523 17.6464 20.6485 17.4536L 24.0648 17.4536C 24.5941 17.4536 25.0272 17.8875 25.0272 18.4178L 25.0272 24.2036C 25.0272 24.7339 24.5941 25.1678 24.0648 25.1678C 13.6233 25.1678 4.86594 17.9357 2.50818 8.19642C 2.07512 6.50892 1.88265 4.725 1.93077 2.98929C 1.97889 2.41072 2.36383 1.9768 2.94124 1.9768Z"/>
</defs>
</svg>
