<svg class="logo" width="197" height="23" viewBox="0 0 197 23" version="1.1" xmlns="http://www.w3.org/2000/svg" xmlns:xlink="http://www.w3.org/1999/xlink">
<g id="Canvas" transform="translate(-3738 -3102)">
<g id="Group">
<g id="SCREENHOLE">
<use xlink:href="#path0_fill" transform="translate(3738.9 3102.28)" fill="#FFFFFF"/>
<use xlink:href="#path1_fill" transform="translate(3738.9 3102.28)" fill="#FFFFFF"/>
<use xlink:href="#path2_fill" transform="translate(3738.9 3102.28)" fill="#FFFFFF"/>
<use xlink:href="#path3_fill" transform="translate(3738.9 3102.28)" fill="#FFFFFF"/>
<use xlink:href="#path4_fill" transform="translate(3738.9 3102.28)" fill="#FFFFFF"/>
<use xlink:href="#path5_fill" transform="translate(3738.9 3102.28)" fill="#FFFFFF"/>
<use xlink:href="#path6_fill" transform="translate(3738.9 3102.28)" fill="#FFFFFF"/>
<use xlink:href="#path7_fill" transform="translate(3738.9 3102.28)" fill="#FFFFFF"/>
<use xlink:href="#path8_fill" transform="translate(3738.9 3102.28)" fill="#FFFFFF"/>
</g>
<g id="Ellipse">
<use xlink:href="#path9_fill" transform="translate(3883 3106)" fill="#060606"/>
</g>
<g id="SCREENHOLE">
<use xlink:href="#path10_fill" transform="translate(3879.24 3102.28)" fill="#6A40EE"/>
</g>
</g>
</g>
<defs>
<path id="path0_fill" d="M 15.84 5.52C 15.36 3.12 13.38 0 8.22 0C 4.2 0 0.81 2.88 0.81 6.66C 0.81 9.87 3 12.06 6.39 12.75L 9.36 13.35C 11.01 13.68 11.94 14.64 11.94 15.87C 11.94 17.37 10.71 18.48 8.49 18.48C 5.49 18.48 4.02 16.59 3.84 14.49L 0 15.51C 0.33 18.54 2.82 22.17 8.46 22.17C 13.41 22.17 16.14 18.87 16.14 15.6C 16.14 12.6 14.07 10.08 10.2 9.33L 7.23 8.76C 5.67 8.46 4.92 7.53 4.92 6.36C 4.92 4.95 6.24 3.66 8.25 3.66C 10.95 3.66 11.91 5.49 12.12 6.66L 15.84 5.52Z"/>
<path id="path1_fill" d="M 29.2069 22.17C 35.1769 22.17 38.2369 18.21 39.0469 14.94L 35.1769 13.77C 34.6069 15.75 32.8369 18.12 29.2069 18.12C 25.7869 18.12 22.6069 15.63 22.6069 11.1C 22.6069 6.27 25.9669 3.99 29.1469 3.99C 32.8369 3.99 34.4869 6.24 34.9969 8.28L 38.8969 7.05C 38.0569 3.6 35.0269 0 29.1469 0C 23.4469 0 18.3169 4.32 18.3169 11.1C 18.3169 17.88 23.2669 22.17 29.2069 22.17Z"/>
<path id="path2_fill" d="M 52.987 21.72L 57.607 21.72L 53.047 13.02C 55.837 12.21 57.577 9.96 57.577 6.99C 57.577 3.3 54.937 0.45 50.797 0.45L 42.487 0.45L 42.487 21.72L 46.657 21.72L 46.657 13.53L 48.817 13.53L 52.987 21.72ZM 46.657 9.96L 46.657 4.05L 50.017 4.05C 52.117 4.05 53.347 5.22 53.347 7.02C 53.347 8.76 52.117 9.96 50.017 9.96L 46.657 9.96Z"/>
<path id="path3_fill" d="M 74.557 21.72L 74.557 17.82L 65.377 17.82L 65.377 12.9L 73.687 12.9L 73.687 9.21L 65.377 9.21L 65.377 4.35L 74.557 4.35L 74.557 0.45L 61.237 0.45L 61.237 21.72L 74.557 21.72Z"/>
<path id="path4_fill" d="M 92.018 21.72L 92.018 17.82L 82.838 17.82L 82.838 12.9L 91.148 12.9L 91.148 9.21L 82.838 9.21L 82.838 4.35L 92.018 4.35L 92.018 0.45L 78.698 0.45L 78.698 21.72L 92.018 21.72Z"/>
<path id="path5_fill" d="M 114.309 21.72L 114.309 0.45L 110.169 0.45L 110.169 14.52L 101.319 0.45L 96.1589 0.45L 96.1589 21.72L 100.299 21.72L 100.299 6.63L 109.959 21.72L 114.309 21.72Z"/>
<path id="path6_fill" d="M 136.737 21.72L 136.737 0.45L 132.567 0.45L 132.567 9L 123.297 9L 123.297 0.45L 119.157 0.45L 119.157 21.72L 123.297 21.72L 123.297 12.9L 132.567 12.9L 132.567 21.72L 136.737 21.72Z"/>
<path id="path7_fill" d="M 179.418 21.72L 179.418 17.76L 169.938 17.76L 169.938 0.45L 165.798 0.45L 165.798 21.72L 179.418 21.72Z"/>
<path id="path8_fill" d="M 195.905 21.72L 195.905 17.82L 186.725 17.82L 186.725 12.9L 195.035 12.9L 195.035 9.21L 186.725 9.21L 186.725 4.35L 195.905 4.35L 195.905 0.45L 182.585 0.45L 182.585 21.72L 195.905 21.72Z"/>
<path id="path9_fill" d="M 15 7.5C 15 11.6421 11.6421 15 7.5 15C 3.35786 15 0 11.6421 0 7.5C 0 3.35786 3.35786 0 7.5 0C 11.6421 0 15 3.35786 15 7.5Z"/>
<path id="path10_fill" d="M 4.29001 11.07C 4.29001 6.27 7.65 3.99 10.92 3.99C 14.22 3.99 17.58 6.27 17.58 11.07C 17.58 15.87 14.22 18.15 10.92 18.15C 7.65 18.15 4.29001 15.87 4.29001 11.07ZM 0 11.1C 0 17.94 5.16 22.17 10.92 22.17C 16.71 22.17 21.87 17.94 21.87 11.1C 21.87 4.23 16.71 0 10.92 0C 5.16 0 0 4.23 0 11.1Z"/>
</defs>
</svg>
