<?xml version="1.0" encoding="utf-8"?>
<!-- Generator: Adobe Illustrator 22.0.0, SVG Export Plug-In . SVG Version: 6.00 Build 0)  -->
<svg version="1.1" xmlns="http://www.w3.org/2000/svg" xmlns:xlink="http://www.w3.org/1999/xlink" x="0px" y="0px"
	 viewBox="0 0 289.5 234.5" style="enable-background:new 0 0 289.5 234.5;" xml:space="preserve">
<style type="text/css">
	.st0{fill:#7134F7;}
	.st1{fill:#3BE06E;}
	.st2{fill:none;stroke:#FFFFFF;stroke-width:9;stroke-linecap:round;stroke-linejoin:round;stroke-miterlimit:10;}
	.st3{fill:none;stroke:#969696;stroke-width:2;stroke-linecap:round;stroke-linejoin:round;stroke-miterlimit:10;}
	.st4{fill:#F22F2F;}
	.st5{fill:#EFEFEF;}
</style>
<g id="Layer_1">
	<rect x="56" y="68" width="164.8" height="117"/>
	<path class="st0" d="M218,60H56c-4.4,0-8,3.6-8,8v117c0,4.4,3.6,8,8,8h162c4.4,0,8-3.6,8-8V68C226,63.6,222.4,60,218,60z M218,185
		H56V68h162V185z"/>
	<path class="st1" d="M45.8,126.5c-2,0.1-19.3,2.6-19.3,51.5c0,1.9,1.6,3.5,3.5,3.5s3.5-1.6,3.5-3.5c0-37.9,10.4-43.6,12.5-44.4V130
		L45.8,126.5z"/>
	<path class="st1" d="M119.2,227.5h-5.7c-1.9,0-3.5,1.6-3.5,3.5s1.6,3.5,3.5,3.5h12.7V197h-7V227.5z"/>
	<path class="st1" d="M149.2,227.5h-5.7c-1.9,0-3.5,1.6-3.5,3.5s1.6,3.5,3.5,3.5h12.7V197h-7V227.5z"/>
	<path class="st1" d="M265,85.5c-1.9,0-3.5,1.6-3.5,3.5c0,29.7-27.4,33.9-33.5,34.4v7c6-0.5,40.5-5.1,40.5-41.4
		C268.5,87.1,266.9,85.5,265,85.5z"/>
	<path class="st0" d="M211,178V75H63v103H211z M71,83h132v87H71V83z"/>
	<rect x="78" y="90" class="st0" width="118" height="73"/>
	<g>
		<g>
			<rect x="87" y="99" width="100" height="55"/>
		</g>
		<g>
			<g>
				<path d="M186,100v53H88v-53H186 M188,98H86v57h102V98L188,98z"/>
			</g>
		</g>
	</g>
	<g>
		<g>
			<circle class="st1" cx="118.5" cy="117.5" r="5.5"/>
		</g>
		<g>
			<circle class="st1" cx="155.5" cy="117.5" r="5.5"/>
		</g>
	</g>
</g>
<g id="Layer_2">
	<path class="st2" d="M130,132.9L130,132.9c3.9,3.8,10.1,3.8,14,0.1l0.1-0.1"/>
	<line class="st3" x1="137" y1="130.8" x2="137" y2="140.7"/>
	<line class="st3" x1="142" y1="125.8" x2="142" y2="139.7"/>
	<line class="st3" x1="132" y1="126.8" x2="132" y2="139.7"/>
	<g>
		<path class="st4" d="M119.7,57.1l47,4.8c0,0-4.6-34.8-0.1-37.4l0,0c2.9-1.7,6.6,0.2,6.9,3.6l0.2,2.2c0.2,2.4,3.2,3.2,4.6,1.3l0,0
			c4.3-5.8,3.2-13.9-2.4-18.5l0,0c-2.7-2.2-6.1-3.1-9.5-2.5c0,0-3.5-0.5-11.7,3.7c-13.5,6.9-24.1,18.4-30.3,32.2L119.7,57.1z"/>
		<circle class="st5" cx="122.9" cy="57.5" r="8.6"/>
		<circle class="st5" cx="135.8" cy="58.8" r="8.6"/>
		<circle class="st5" cx="145.8" cy="59.8" r="8.6"/>
		<circle class="st5" cx="163.9" cy="61.6" r="8.6"/>
		<circle class="st5" cx="176.7" cy="32.1" r="5.2"/>
		<circle class="st5" cx="155.3" cy="60.8" r="8.6"/>
	</g>
</g>
<g id="Layer_3">
	<path d="M151.3,125.9c-3.8-4-10.2-4.1-14.1-0.3l-0.1,0.1c0,0,0,0,0,0c-3.9-3.9-10.3-3.8-14.1,0.1c-3.9,3.9-3.8,10.3,0.1,14.1
		c3.9,3.8,9,5.8,14,5.8c5,0,10-1.9,13.9-5.6l0.1-0.1C155,136.3,155.1,129.9,151.3,125.9z M147.2,136.1l-0.1,0.1
		c-2.8,2.7-6.5,4.1-10.1,4.1c-3.7,0-7.3-1.4-10.2-4.2c-1.8-1.7-1.8-4.6-0.1-6.4c1.7-1.8,4.6-1.8,6.4-0.1c2.2,2.1,5.5,2.1,7.7,0.1
		l0.1-0.1c1.8-1.7,4.6-1.7,6.4,0.1C149,131.5,149,134.4,147.2,136.1z"/>
</g>
</svg>
