<svg width="25" height="25" viewBox="0 0 25 25" version="1.1" xmlns="http://www.w3.org/2000/svg" xmlns:xlink="http://www.w3.org/1999/xlink">
<title>Group</title>
<desc>Created using Figma</desc>
<g id="Canvas" transform="translate(-1066 1023)">
<g id="Group">
<g id="Group">
<g id="Vector">
<use xlink:href="#path0_fill" transform="translate(1066 -1023)" fill="#6A40EE"/>
</g>
</g>
<g id="Vector">
<use xlink:href="#path1_fill" transform="translate(1079.42 -1017.55)" fill="#6FDC7B"/>
</g>
<g id="Vector">
<use xlink:href="#path2_fill" transform="translate(1079.46 -1022.82)" fill="#6FDC7B"/>
</g>
</g>
</g>
<defs>
<path id="path0_fill" d="M 2.72337 0.0446592C 1.25311 0.0446592 0.0501751 1.20537 0.00562183 2.63394C -0.0389314 4.41965 0.183835 6.20535 0.584814 7.94642C 2.94614 17.6786 11.6786 24.9107 22.1486 25C 22.1931 25 22.2823 25 22.3268 25C 22.4605 25 22.5941 24.9554 22.6832 24.9107C 23.9753 24.7321 25 23.6607 25 22.3215L 25 16.9643C 25 15.4911 23.7971 14.2857 22.3268 14.2857L 18.7625 14.2857C 18.1388 14.2857 18.0497 14.5536 17.9606 14.6875C 17.8715 14.8214 17.7824 14.9107 17.6933 15.0446C 17.5151 15.3125 17.3814 15.5804 17.2032 15.8929C 16.9804 16.2947 16.8468 16.4732 16.7131 16.6964C 12.8815 14.9553 9.85189 12.0536 8.29253 8.25893C 8.47074 8.16964 8.55985 8.125 8.78261 8.03572C 9.13904 7.85714 9.54002 7.72321 9.85189 7.49999C 10.0301 7.41071 10.2083 7.2768 10.342 7.09823C 10.5202 6.91965 10.6984 6.65179 10.6984 6.25L 10.6984 2.67857C 10.6984 1.20536 9.49547 0 8.02521 0L 2.72337 0L 2.72337 0.0446592ZM 2.72337 1.83037L 8.06976 1.83037C 8.55985 1.83037 8.96083 2.23216 8.96083 2.72323L 8.96083 6.02679C 8.96083 6.02679 8.96083 6.0268 8.91627 6.07144C 8.73806 6.20537 8.38163 6.3393 8.02521 6.51787C 7.66878 6.69644 7.31236 6.83036 7.00048 7.00893C 6.86682 7.09822 6.68861 7.1875 6.5104 7.36607C 6.42129 7.45536 6.28763 7.5893 6.24308 7.85716C 6.19852 8.03573 6.24308 8.25893 6.33218 8.48214L 6.28763 8.43751C 8.02521 13.2589 11.8568 16.8304 16.5794 18.7947C 16.8913 18.9286 17.2477 18.8839 17.5151 18.6607C 18.0942 18.125 18.3616 17.5 18.718 16.875C 18.8517 16.6071 19.0299 16.3393 19.119 16.1607L 22.2823 16.1607C 22.7723 16.1607 23.1733 16.5625 23.1733 17.0536L 23.1733 22.4107C 23.1733 22.9018 22.7723 23.3036 22.2823 23.3036C 12.6142 23.3036 4.5055 16.6071 2.32239 7.58929C 1.92141 6.02679 1.7432 4.37501 1.78775 2.76786C 1.83231 2.23215 2.18873 1.83037 2.72337 1.83037ZM 19.2972 15.8929C 19.2972 15.8929 19.2972 15.9375 19.2081 15.9821C 19.2526 15.9375 19.2972 15.8929 19.2972 15.8929Z"/>
<path id="path1_fill" d="M 0 0.892857C 0 0.401786 0.400979 0 0.891065 0C 1.02472 0 1.15839 0.044632 1.24749 0.044632C 3.4306 0.982132 5.21273 2.7232 6.1038 4.95535L 6.1038 5.00001C 6.28201 5.44643 6.05924 5.98214 5.61371 6.16071C 5.16818 6.33928 4.63354 6.11608 4.45533 5.66965C 3.74247 3.88393 2.36132 2.45537 0.579192 1.74108C 0.222766 1.60715 0 1.25 0 0.892857Z"/>
<path id="path2_fill" d="M 0.00338745 0.937489C -0.0411658 0.401775 0.359812 0 0.849898 0L 1.02811 0C 6.3745 0.848214 10.6071 5.08927 11.409 10.4464L 11.409 10.4911C 11.4981 10.9375 11.0971 11.3839 10.6516 11.4732C 10.2061 11.5625 9.716 11.2054 9.67145 10.7143C 8.95859 6.11607 5.34978 2.5 0.760793 1.78571C 0.359813 1.74107 0.00338745 1.38392 0.00338745 0.937489Z"/>
</defs>
</svg>
