<svg width="34" height="34" viewBox="0 0 34 34" version="1.1" xmlns="http://www.w3.org/2000/svg" xmlns:xlink="http://www.w3.org/1999/xlink">
<title>chomment</title>
<desc>Created using Figma</desc>
<g id="Canvas" transform="translate(-8464 3011)">
<g id="chomment">
<g id="Union">
<mask id="mask0_outline_ins">
<use xlink:href="#path0_fill" fill="white" transform="translate(8464 -3011)"/>
</mask>
<g mask="url(#mask0_outline_ins)">
<use xlink:href="#path1_stroke_2x" transform="translate(8464 -3011)" fill="#6A40EE"/>
</g>
</g>
<g id="SUP">
<use xlink:href="#path2_fill" transform="translate(8465 -3005)" fill="#6A40EE"/>
</g>
</g>
</g>
<defs>
<path id="path0_fill" fill-rule="evenodd" d="M 7 0C 3.13379 0 0 3.13403 0 7L 0 19C 0 22.866 3.13379 26 7 26L 7 32.4004C 7 33.2629 8.01855 33.7207 8.66406 33.1482L 16.7178 26L 27 26C 30.8662 26 34 22.866 34 19L 34 7C 34 3.13403 30.8662 0 27 0L 7 0Z"/>
<path id="path1_stroke_2x" d="M 7 26L 9 26C 9 24.8954 8.10457 24 7 24L 7 26ZM 8.66406 33.1482L 9.99114 34.6445L 9.99168 34.644L 8.66406 33.1482ZM 16.7178 26L 16.7178 24C 16.2285 24 15.7561 24.1794 15.3902 24.5042L 16.7178 26ZM 2 7C 2 4.23856 4.2384 2 7 2L 7 -2C 2.02917 -2 -2 2.02951 -2 7L 2 7ZM 2 19L 2 7L -2 7L -2 19L 2 19ZM 7 24C 4.2384 24 2 21.7614 2 19L -2 19C -2 23.9705 2.02917 28 7 28L 7 24ZM 9 32.4004L 9 26L 5 26L 5 32.4004L 9 32.4004ZM 7.33699 31.6519C 7.98043 31.0812 9 31.5365 9 32.4004L 5 32.4004C 5 34.9894 8.05668 36.3602 9.99114 34.6445L 7.33699 31.6519ZM 15.3902 24.5042L 7.33644 31.6524L 9.99168 34.644L 18.0454 27.4958L 15.3902 24.5042ZM 27 24L 16.7178 24L 16.7178 28L 27 28L 27 24ZM 32 19C 32 21.7614 29.7616 24 27 24L 27 28C 31.9708 28 36 23.9705 36 19L 32 19ZM 32 7L 32 19L 36 19L 36 7L 32 7ZM 27 2C 29.7616 2 32 4.23856 32 7L 36 7C 36 2.02951 31.9708 -2 27 -2L 27 2ZM 7 2L 27 2L 27 -2L 7 -2L 7 2Z"/>
<path id="path2_fill" d="M 8.52347 10.536C 7.47947 10.512 7.04747 9.816 7.04747 9.108C 7.04747 9 7.05947 8.892 7.07147 8.832L 5.33147 9.132C 5.31947 9.204 5.30747 9.3 5.30747 9.456C 5.30747 10.56 6.14747 12.18 8.55947 12.18C 10.5275 12.18 11.6435 10.836 11.6435 9.504C 11.6435 8.46 11.1155 7.668 9.79547 7.104L 8.89547 6.72C 8.55947 6.576 8.29547 6.348 8.29547 5.916C 8.29547 5.448 8.70347 4.968 9.39947 4.968C 10.5515 4.968 10.6595 5.856 10.6595 6.096L 12.4235 5.808C 12.4235 4.932 11.8235 3.324 9.48347 3.324C 7.83947 3.324 6.38747 4.404 6.38747 6.084C 6.38747 7.104 6.91547 7.956 8.06747 8.424L 9.06347 8.832C 9.54347 9.036 9.67547 9.312 9.67547 9.648C 9.67547 10.188 9.25547 10.536 8.52347 10.536ZM 18.723 3.492L 17.595 8.916C 17.403 9.852 16.875 10.308 16.131 10.308C 15.195 10.308 14.823 9.804 14.823 9.096C 14.823 8.94 14.859 8.664 14.919 8.376L 15.951 3.492L 14.031 3.492L 13.035 8.28C 12.951 8.7 12.891 8.988 12.891 9.372C 12.891 11.052 14.115 12.18 15.963 12.18C 17.619 12.18 18.999 11.208 19.419 9.264L 20.643 3.492L 18.723 3.492ZM 22.3552 3.492L 20.5553 12L 22.4392 12L 23.0993 8.928L 24.4433 8.928C 26.4473 8.916 27.8033 7.788 27.8033 5.928C 27.8033 4.476 26.7112 3.492 25.1633 3.492L 22.3552 3.492ZM 24.6832 5.124C 25.5233 5.124 25.8472 5.508 25.8472 6.096C 25.8472 6.684 25.4633 7.296 24.4193 7.296L 23.4473 7.296L 23.9153 5.124L 24.6832 5.124Z"/>
</defs>
</svg>
