<svg width="34" height="34" viewBox="0 0 34 34" version="1.1" xmlns="http://www.w3.org/2000/svg" xmlns:xlink="http://www.w3.org/1999/xlink">
<title>hole</title>
<desc>Created using Figma</desc>
<g id="Canvas" transform="translate(-8336 3011)">
<g id="hole">
<g id="Rectangle">
<mask id="mask0_outline_ins">
<use xlink:href="#path0_fill" fill="white" transform="translate(8336 -3011)"/>
</mask>
<g mask="url(#mask0_outline_ins)">
<use xlink:href="#path1_stroke_2x" transform="translate(8336 -3011)" fill="#6A40EE"/>
</g>
</g>
<g id="Rectangle">
<mask id="mask1_outline_ins">
<use xlink:href="#path2_fill" fill="white" transform="translate(8340 -3007)"/>
</mask>
<g mask="url(#mask1_outline_ins)">
<use xlink:href="#path3_stroke_2x" transform="translate(8340 -3007)" fill="#6A40EE"/>
</g>
</g>
<g id="Rectangle">
<mask id="mask2_outline_ins">
<use xlink:href="#path4_fill" fill="white" transform="translate(8344 -3003)"/>
</mask>
<g mask="url(#mask2_outline_ins)">
<use xlink:href="#path5_stroke_2x" transform="translate(8344 -3003)" fill="#6A40EE"/>
</g>
</g>
</g>
</g>
<defs>
<path id="path0_fill" d="M 0 7C 0 3.13401 3.13401 0 7 0L 27 0C 30.866 0 34 3.13401 34 7L 34 27C 34 30.866 30.866 34 27 34L 7 34C 3.13401 34 0 30.866 0 27L 0 7Z"/>
<path id="path1_stroke_2x" d="M 7 2L 27 2L 27 -2L 7 -2L 7 2ZM 32 7L 32 27L 36 27L 36 7L 32 7ZM 27 32L 7 32L 7 36L 27 36L 27 32ZM 2 27L 2 7L -2 7L -2 27L 2 27ZM 7 32C 4.23858 32 2 29.7614 2 27L -2 27C -2 31.9706 2.02944 36 7 36L 7 32ZM 32 27C 32 29.7614 29.7614 32 27 32L 27 36C 31.9706 36 36 31.9706 36 27L 32 27ZM 27 2C 29.7614 2 32 4.23858 32 7L 36 7C 36 2.02944 31.9706 -2 27 -2L 27 2ZM 7 -2C 2.02944 -2 -2 2.02944 -2 7L 2 7C 2 4.23858 4.23858 2 7 2L 7 -2Z"/>
<path id="path2_fill" d="M 0 4C 0 1.79086 1.79086 0 4 0L 22 0C 24.2091 0 26 1.79086 26 4L 26 22C 26 24.2091 24.2091 26 22 26L 4 26C 1.79086 26 0 24.2091 0 22L 0 4Z"/>
<path id="path3_stroke_2x" d="M 4 2L 22 2L 22 -2L 4 -2L 4 2ZM 24 4L 24 22L 28 22L 28 4L 24 4ZM 22 24L 4 24L 4 28L 22 28L 22 24ZM 2 22L 2 4L -2 4L -2 22L 2 22ZM 4 24C 2.89543 24 2 23.1046 2 22L -2 22C -2 25.3137 0.686292 28 4 28L 4 24ZM 24 22C 24 23.1046 23.1046 24 22 24L 22 28C 25.3137 28 28 25.3137 28 22L 24 22ZM 22 2C 23.1046 2 24 2.89543 24 4L 28 4C 28 0.686292 25.3137 -2 22 -2L 22 2ZM 4 -2C 0.686292 -2 -2 0.686292 -2 4L 2 4C 2 2.89543 2.89543 2 4 2L 4 -2Z"/>
<path id="path4_fill" d="M 0 1C 0 0.447715 0.447715 0 1 0L 17 0C 17.5523 0 18 0.447715 18 1L 18 17C 18 17.5523 17.5523 18 17 18L 1 18C 0.447715 18 0 17.5523 0 17L 0 1Z"/>
<path id="path5_stroke_2x" d="M 1 2L 17 2L 17 -2L 1 -2L 1 2ZM 16 1L 16 17L 20 17L 20 1L 16 1ZM 17 16L 1 16L 1 20L 17 20L 17 16ZM 2 17L 2 1L -2 1L -2 17L 2 17ZM 1 16C 1.55228 16 2 16.4477 2 17L -2 17C -2 18.6569 -0.656854 20 1 20L 1 16ZM 16 17C 16 16.4477 16.4477 16 17 16L 17 20C 18.6569 20 20 18.6569 20 17L 16 17ZM 17 2C 16.4477 2 16 1.55228 16 1L 20 1C 20 -0.656854 18.6569 -2 17 -2L 17 2ZM 1 -2C -0.656854 -2 -2 -0.656854 -2 1L 2 1C 2 1.55228 1.55228 2 1 2L 1 -2Z"/>
</defs>
</svg>
