<svg width="20" height="26" viewBox="0 0 20 26" version="1.1" xmlns="http://www.w3.org/2000/svg" xmlns:xlink="http://www.w3.org/1999/xlink">
<title>trash</title>
<desc>Created using Figma</desc>
<g id="Canvas" transform="translate(-8132 4676)">
<g id="trash">
<g id="Vector">
<use xlink:href="#path0_fill" transform="translate(8132 -4676)" fill="#3B3648"/>
</g>
<g id="Vector">
<use xlink:href="#path1_fill" transform="translate(8141.06 -4665.69)" fill="#3B3648"/>
</g>
<g id="Vector">
<use xlink:href="#path1_fill" transform="translate(8144.5 -4665.69)" fill="#3B3648"/>
</g>
<g id="Vector">
<use xlink:href="#path1_fill" transform="translate(8137.62 -4665.69)" fill="#3B3648"/>
</g>
</g>
</g>
<defs>
<path id="path0_fill" d="M 12.5625 0L 7.4375 0C 6.40625 0 5.5625 0.811561 5.5625 1.80347L 5.5625 3.24624L 1.5625 3.24624C 0.6875 3.24624 0 3.90751 0 4.74913L 0 6.61272C 0 7.45434 0.6875 8.11561 1.5625 8.11561L 1.90625 8.11561L 1.90625 22.6936C 1.90625 24.5272 3.4375 26 5.34375 26L 14.625 26C 16.5312 26 18.0625 24.5272 18.0625 22.6936L 18.0625 8.11561L 18.4375 8.11561C 19.3125 8.11561 20 7.45434 20 6.61272L 20 4.74913C 20 3.90751 19.3125 3.24624 18.4375 3.24624L 14.4375 3.24624L 14.4375 1.80347C 14.4375 0.811561 13.5938 0 12.5625 0ZM 7.4375 1.80347L 12.5312 1.80347L 12.5312 3.24624L 7.4375 3.24624L 7.4375 1.80347ZM 16.1875 22.6936C 16.1875 23.5353 15.5 24.1965 14.625 24.1965L 5.34375 24.1965C 4.46875 24.1965 3.78125 23.5353 3.78125 22.6936L 3.78125 8.11561L 16.2188 8.11561L 16.1875 22.6936ZM 18.125 6.31214L 1.875 6.31214L 1.875 5.04971L 18.125 5.04971L 18.125 6.31214Z"/>
<path id="path1_fill" d="M 0.9375 11.9931C 1.46875 11.9931 1.875 11.6023 1.875 11.0913L 1.875 0.901734C 1.875 0.390751 1.46875 -2.29323e-07 0.9375 -2.29323e-07C 0.40625 -2.29323e-07 0 0.390751 0 0.901734L 0 11.0913C 0 11.6023 0.40625 11.9931 0.9375 11.9931Z"/>
</defs>
</svg>
