<svg width="27" height="27" viewBox="0 0 27 27" version="1.1" xmlns="http://www.w3.org/2000/svg" xmlns:xlink="http://www.w3.org/1999/xlink">
<title>icon-phone-chomment</title>
<desc>Created using Figma</desc>
<g id="Canvas" transform="translate(1437 1955)">
<g id="icon-phone-chomment">
<use xlink:href="#path0_fill" transform="translate(-1437 -1955)" fill="#FFFFFF"/>
<use xlink:href="#path1_fill" transform="translate(-1437 -1955)" fill="#FFFFFF"/>
<mask id="mask0_outline_ins">
<use xlink:href="#path0_fill" fill="white" transform="translate(-1437 -1955)"/>
<use xlink:href="#path1_fill" fill="white" transform="translate(-1437 -1955)"/>
</mask>
<g mask="url(#mask0_outline_ins)">
<use xlink:href="#path2_stroke_2x" transform="translate(-1437 -1955)" fill="#FFFFFF"/>
</g>
</g>
</g>
<defs>
<path id="path0_fill" fill-rule="evenodd" d="M 2.94124 0.0482319C 1.35336 0.0482319 0.0541891 1.3018 0.00607158 2.84465C -0.0420459 4.77322 0.198542 6.70177 0.631599 8.58213C 3.18183 19.0928 12.6129 26.9036 23.9205 27L 24.1129 27C 24.2573 27 24.4017 26.9518 24.4979 26.9035C 25.8933 26.7107 27 25.5536 27 24.1071L 27 18.3214C 27 16.7304 25.7008 15.4286 24.1129 15.4286L 20.2635 15.4286C 19.5899 15.4286 19.4937 15.7179 19.3974 15.8625C 19.3012 16.0071 19.205 16.1036 19.1087 16.2482C 18.9163 16.5375 18.7719 16.8268 18.5794 17.1643C 18.3388 17.5982 18.1945 17.791 18.0501 18.0321C 13.912 16.1518 10.64 13.0178 8.95593 8.91963C 9.1484 8.82321 9.24464 8.77499 9.48522 8.67856C 9.87016 8.48571 10.3032 8.34106 10.64 8.09999C 10.8325 8.00356 11.025 7.85893 11.1693 7.66607C 11.3618 7.47322 11.5543 7.18392 11.5543 6.74999L 11.5543 2.89285C 11.5543 1.30178 10.2551 0 8.66722 0L 2.94124 0L 2.94124 0.0482319ZM 8.71534 1.9768L 2.94124 1.9768C 2.36383 1.9768 1.97889 2.41072 1.93077 2.98929C 1.88265 4.725 2.07512 6.50892 2.50818 8.19642C 4.86594 17.9357 13.6233 25.1678 24.0648 25.1678C 24.5941 25.1678 25.0272 24.7339 25.0272 24.2036L 25.0272 18.4178C 25.0272 17.8875 24.5941 17.4536 24.0648 17.4536L 20.6485 17.4536C 20.5523 17.6464 20.3598 17.9357 20.2154 18.225C 19.8305 18.9 19.5418 19.575 18.9163 20.1535C 18.6276 20.3946 18.2426 20.4429 17.9058 20.2982C 12.8053 18.1768 8.66723 14.3196 6.79064 9.1125L 6.83876 9.16071C 6.74252 8.91963 6.69441 8.67858 6.74252 8.48572C 6.79064 8.19644 6.93499 8.05178 7.03123 7.95535C 7.2237 7.76249 7.41617 7.66607 7.56052 7.56964C 7.89734 7.37678 8.28228 7.23215 8.66722 7.0393C 9.05217 6.84644 9.43711 6.7018 9.62958 6.55715L 9.67769 6.50892L 9.67769 2.94109C 9.67769 2.41073 9.24464 1.9768 8.71534 1.9768ZM 20.841 17.1643C 20.841 17.1643 20.841 17.2125 20.7447 17.2607L 20.841 17.1643Z"/>
<path id="path1_fill" d="M 2.94124 1.9768L 8.71534 1.9768C 9.24464 1.9768 9.67769 2.41073 9.67769 2.94109L 9.67769 6.50892L 9.62958 6.55715C 9.43711 6.7018 9.05217 6.84644 8.66722 7.0393C 8.28228 7.23215 7.89734 7.37678 7.56052 7.56964C 7.41617 7.66607 7.2237 7.76249 7.03123 7.95535C 6.93499 8.05178 6.79064 8.19644 6.74252 8.48572C 6.69441 8.67858 6.74252 8.91963 6.83876 9.16071L 6.79064 9.1125C 8.66723 14.3196 12.8053 18.1768 17.9058 20.2982C 18.2426 20.4429 18.6276 20.3946 18.9163 20.1535C 19.5418 19.575 19.8305 18.9 20.2154 18.225C 20.3598 17.9357 20.5523 17.6464 20.6485 17.4536L 24.0648 17.4536C 24.5941 17.4536 25.0272 17.8875 25.0272 18.4178L 25.0272 24.2036C 25.0272 24.7339 24.5941 25.1678 24.0648 25.1678C 13.6233 25.1678 4.86594 17.9357 2.50818 8.19642C 2.07512 6.50892 1.88265 4.725 1.93077 2.98929C 1.97889 2.41072 2.36383 1.9768 2.94124 1.9768Z"/>
<path id="path2_stroke_2x" d="M 9.67769 6.50892L 10.1768 6.53883L 10.1777 6.52389L 10.1777 6.50892L 9.67769 6.50892ZM 9.62958 6.55715L 9.92996 6.95686L 9.95838 6.93551L 9.98348 6.91035L 9.62958 6.55715ZM 7.56052 7.56964L 7.31208 7.13573L 7.29712 7.1443L 7.28279 7.15387L 7.56052 7.56964ZM 6.74252 8.48572L 7.22765 8.60676L 7.23248 8.58742L 7.23575 8.56776L 6.74252 8.48572ZM 6.83876 9.16071L 6.48489 9.51394L 7.30313 8.97533L 6.83876 9.16071ZM 6.79064 9.1125L 7.14451 8.75926L 6.32026 9.28202L 6.79064 9.1125ZM 17.9058 20.2982L 18.1031 19.8388L 18.0978 19.8366L 17.9058 20.2982ZM 18.9163 20.1535L 19.2367 20.5373L 19.2465 20.5292L 19.2558 20.5206L 18.9163 20.1535ZM 20.2154 18.225L 20.6498 18.4727L 20.6566 18.4606L 20.6628 18.4482L 20.2154 18.225ZM 20.6485 17.4536L 20.6485 16.9536L 20.3392 16.9536L 20.2011 17.2303L 20.6485 17.4536ZM 2.50818 8.19642L 2.99419 8.07876L 2.99249 8.07213L 2.50818 8.19642ZM 1.93077 2.98929L 1.43249 2.94785L 1.43135 2.96162L 1.43096 2.97543L 1.93077 2.98929ZM 23.9205 27.5C 23.9686 27.5 24.0648 27.5 24.1129 27.5L 24.1129 26.5C 24.0648 26.5 23.9686 26.5 23.9205 26.5L 23.9205 27.5ZM 2.94124 2.4768L 8.71534 2.4768L 8.71534 1.4768L 2.94124 1.4768L 2.94124 2.4768ZM 8.71534 2.4768C 8.96755 2.4768 9.17769 2.68592 9.17769 2.94109L 10.1777 2.94109C 10.1777 2.13553 9.52172 1.4768 8.71534 1.4768L 8.71534 2.4768ZM 9.17769 2.94109L 9.17769 6.50892L 10.1777 6.50892L 10.1777 2.94109L 9.17769 2.94109ZM 9.67769 6.50892C 9.17859 6.47902 9.20777 6.33811 9.27588 6.21136C 9.28064 6.20503 9.29097 6.192 9.29655 6.18531C 9.2935 6.18886 9.31256 6.16727 9.30925 6.17092C 9.30752 6.17279 9.31812 6.16148 9.31631 6.16337C 9.31539 6.16433 9.32098 6.15855 9.32004 6.15952C 9.31957 6.16 9.32242 6.15709 9.32195 6.15758C 9.32172 6.15781 9.32303 6.15648 9.32284 6.15668C 9.32281 6.15671 9.32292 6.15659 9.32267 6.15685C 9.32198 6.15754 9.32059 6.15893 9.31765 6.16188C 9.31166 6.16788 9.2997 6.17988 9.27567 6.20396L 9.98348 6.91035C 10.0076 6.88621 10.0197 6.87409 10.0257 6.86803C 10.0288 6.86496 10.0304 6.86332 10.0312 6.86251C 10.0317 6.86201 10.0321 6.86157 10.0324 6.86135C 10.0327 6.86106 10.0332 6.86055 10.0334 6.86029C 10.0339 6.8598 10.0349 6.85882 10.0353 6.85833C 10.0363 6.85736 10.0382 6.85543 10.0391 6.85447C 10.0409 6.85258 10.0444 6.8488 10.0461 6.84693C 10.0494 6.84329 10.0558 6.83609 10.0588 6.83253C 10.0644 6.82585 10.0747 6.81281 10.0795 6.80649C 10.1476 6.67973 10.1768 6.53883 9.67769 6.50892ZM 9.32919 6.15744C 9.2701 6.20438 9.17153 6.25156 9.00967 6.3268C 8.84633 6.40283 8.64727 6.49024 8.44326 6.59226L 8.89119 7.48633C 9.07212 7.3955 9.258 7.31416 9.43148 7.23349C 9.60645 7.15203 9.79658 7.05457 9.92996 6.95686L 9.32919 6.15744ZM 8.44326 6.59226C 8.0821 6.77398 7.68451 6.92435 7.31208 7.13573L 7.80897 8.00355C 8.11018 7.82922 8.48247 7.69033 8.89119 7.48633L 8.44326 6.59226ZM 7.28279 7.15387C 7.16484 7.23383 6.93098 7.35713 6.67732 7.60215L 7.38514 8.30855C 7.51642 8.16785 7.6675 8.09831 7.83826 7.98541L 7.28279 7.15387ZM 6.67732 7.60215C 6.56193 7.71777 6.32384 7.95556 6.2493 8.40368L 7.23575 8.56776C 7.24811 8.49347 7.27024 8.4485 7.28968 8.4182C 7.31257 8.37721 7.33703 8.35675 7.38514 8.30855L 6.67732 7.60215ZM 6.2574 8.36468C 6.17093 8.71123 6.26541 9.07309 6.37439 9.34608L 7.30313 8.97533C 7.21963 8.76618 7.21788 8.64593 7.22765 8.60676L 6.2574 8.36468ZM 7.19263 8.80747L 7.14451 8.75926L 6.43677 9.46574L 6.48489 9.51394L 7.19263 8.80747ZM 6.32026 9.28202C 8.25187 14.6419 12.5052 18.5935 17.7138 20.7599L 18.0978 19.8366C 13.1054 17.7601 9.08258 13.9974 7.26103 8.94298L 6.32026 9.28202ZM 17.7085 20.7576C 18.2128 20.9742 18.7989 20.903 19.2367 20.5373L 18.5958 19.7698C 18.4562 19.8863 18.2724 19.9115 18.1031 19.8388L 17.7085 20.7576ZM 19.2558 20.5206C 19.9504 19.8632 20.2782 19.1225 20.6498 18.4727L 19.7811 17.9773C 19.3827 18.6775 19.1332 19.2868 18.5768 19.7865L 19.2558 20.5206ZM 20.6628 18.4482C 20.7925 18.1863 20.9849 17.897 21.0959 17.6768L 20.2011 17.2303C 20.1196 17.3958 19.9271 17.6851 19.768 18.0017L 20.6628 18.4482ZM 20.6485 17.9536L 24.0648 17.9536L 24.0648 16.9536L 20.6485 16.9536L 20.6485 17.9536ZM 24.0648 17.9536C 24.317 17.9536 24.5272 18.1627 24.5272 18.4178L 25.5272 18.4178C 25.5272 17.6123 24.8712 16.9536 24.0648 16.9536L 24.0648 17.9536ZM 24.5272 18.4178L 24.5272 24.2036L 25.5272 24.2036L 25.5272 18.4178L 24.5272 18.4178ZM 24.5272 24.2036C 24.5272 24.4587 24.317 24.6678 24.0648 24.6678L 24.0648 25.6678C 24.8712 25.6678 25.5272 25.0091 25.5272 24.2036L 24.5272 24.2036ZM 24.0648 24.6678C 13.8602 24.6678 5.29902 17.5996 2.99415 8.07877L 2.02222 8.31407C 4.43286 18.2718 13.3865 25.6678 24.0648 25.6678L 24.0648 24.6678ZM 2.99249 8.07213C 2.56711 6.41973 2.38226 4.70507 2.43058 3.00314L 1.43096 2.97543C 1.38305 4.74494 1.58314 6.59811 2.02388 8.32071L 2.99249 8.07213ZM 2.42905 3.03073C 2.46022 2.65598 2.67598 2.4768 2.94124 2.4768L 2.94124 1.4768C 2.05168 1.4768 1.49756 2.16546 1.43249 2.94785L 2.42905 3.03073ZM 21.0986 17.6139C 21.1227 17.5898 21.1467 17.5657 21.1647 17.5477C 21.1737 17.5386 21.1813 17.5311 21.1865 17.5258C 21.1891 17.5232 21.1912 17.5211 21.1926 17.5197C 21.1933 17.519 21.1939 17.5185 21.1942 17.5181C 21.1944 17.5179 21.1945 17.5178 21.1946 17.5177C 21.1947 17.5177 21.1947 17.5176 21.1947 17.5176C 21.1948 17.5176 21.1948 17.5176 21.1948 17.5176C 21.1948 17.5176 21.1948 17.5176 21.1948 17.5176C 21.1948 17.5176 21.1948 17.5176 21.1948 17.5176C 21.1948 17.5176 21.1948 17.5176 20.841 17.1643C 20.4871 16.811 20.4871 16.811 20.4871 16.811C 20.4871 16.811 20.4871 16.811 20.4871 16.811C 20.4871 16.811 20.4871 16.811 20.4871 16.811C 20.4871 16.811 20.4871 16.811 20.4871 16.811C 20.4871 16.8111 20.4871 16.8111 20.487 16.8111C 20.4869 16.8112 20.4868 16.8114 20.4866 16.8115C 20.4862 16.8119 20.4857 16.8125 20.485 16.8132C 20.4836 16.8146 20.4815 16.8167 20.4789 16.8193C 20.4736 16.8246 20.4661 16.8321 20.457 16.8411C 20.439 16.8592 20.4149 16.8834 20.3908 16.9075L 21.0986 17.6139ZM 9.32372 6.15578L 9.27561 6.20402L 9.98355 6.91029L 10.0317 6.86206L 9.32372 6.15578ZM 2.94124 0.0482319L 2.94124 1.04823L 3.94124 1.04823L 3.94124 0.0482319L 2.94124 0.0482319ZM 0.00607158 2.84465L -0.993462 2.81348L -0.993617 2.81971L 0.00607158 2.84465ZM 0.631599 8.58213L -0.342957 8.80658L -0.340205 8.81792L 0.631599 8.58213ZM 23.9205 27L 23.912 28L 23.9205 28L 23.9205 27ZM 24.4979 26.9035L 24.361 25.913L 24.1975 25.9355L 24.05 26.0095L 24.4979 26.9035ZM 18.5794 17.1643L 17.7107 16.6689L 17.7049 16.6794L 18.5794 17.1643ZM 18.0501 18.0321L 17.6364 18.9425L 18.4494 19.3119L 18.9081 18.5458L 18.0501 18.0321ZM 8.95593 8.91963L 8.508 8.02557L 7.67822 8.44129L 8.03098 9.29973L 8.95593 8.91963ZM 9.48522 8.67856L 9.85726 9.60678L 9.89592 9.59129L 9.93316 9.57263L 9.48522 8.67856ZM 10.64 8.09999L 10.1921 7.20592L 10.1219 7.2411L 10.058 7.28681L 10.64 8.09999ZM 11.1693 7.66607L 10.4615 6.95968L 10.4113 7.00997L 10.3688 7.06685L 11.1693 7.66607ZM 2.94124 0L 2.94124 -1L 1.94124 -1L 1.94124 0L 2.94124 0ZM 20.841 17.1643L 21.841 17.1643L 21.8411 14.747L 20.1332 16.4578L 20.841 17.1643ZM 20.7447 17.2607L 20.037 16.5542L 21.1927 18.1548L 20.7447 17.2607ZM 2.94124 -0.951768C 0.825626 -0.951768 -0.928103 0.718417 -0.993442 2.81348L 1.00559 2.87582C 1.03648 1.88518 1.8811 1.04823 2.94124 1.04823L 2.94124 -0.951768ZM -0.993617 2.81971C -1.04082 4.82278 -0.786144 6.87611 -0.342891 8.80656L 1.60609 8.3577C 1.18323 6.52743 0.956725 4.72366 1.00576 2.86959L -0.993617 2.81971ZM -0.340205 8.81792C 2.31605 19.7656 12.1375 27.8996 23.912 28L 23.929 26C 13.0882 25.9076 4.0476 18.4201 1.6034 8.34634L -0.340205 8.81792ZM 24.1129 28C 24.4179 27.987 24.7851 27.8753 24.9458 27.7976L 24.05 26.0095C 24.058 26.0054 24.0594 26.0053 24.0597 26.0053C 24.0609 26.0049 24.0652 26.0038 24.0728 26.0027C 24.0802 26.0016 24.0938 26 24.1129 26L 24.1129 28ZM 24.6348 27.8941C 26.4838 27.6386 28 26.0933 28 24.1071L 26 24.1071C 26 25.0138 25.3027 25.7828 24.361 25.913L 24.6348 27.8941ZM 28 24.1071L 28 18.3214L 26 18.3214L 26 24.1071L 28 24.1071ZM 28 18.3214C 28 16.18 26.255 14.4286 24.1129 14.4286L 24.1129 16.4286C 25.1466 16.4286 26 17.2807 26 18.3214L 28 18.3214ZM 24.1129 14.4286L 20.2635 14.4286L 20.2635 16.4286L 24.1129 16.4286L 24.1129 14.4286ZM 20.2635 14.4286C 19.7856 14.4286 19.3587 14.5322 19.0132 14.7919C 18.711 15.0592 18.5607 15.3084 18.5649 15.3086L 20.23 16.4164C 20.2461 16.3922 20.2596 16.3705 20.2687 16.3556C 20.2731 16.3484 20.2778 16.3406 20.2813 16.3349C 20.2847 16.3291 20.2876 16.3243 20.2903 16.3199C 20.3011 16.3021 20.3017 16.3016 20.299 16.3055C 20.2953 16.3108 20.2858 16.3238 20.2708 16.3401C 20.2553 16.3568 20.2366 16.3743 20.2147 16.3907C 20.1929 16.4071 20.1723 16.4192 20.155 16.4276C 20.1379 16.4359 20.1274 16.4389 20.1264 16.4392C 20.1258 16.4394 20.1648 16.4286 20.2635 16.4286L 20.2635 14.4286ZM 18.5649 15.3086C 18.5273 15.3739 18.431 15.4703 18.2762 15.6943L 19.9413 16.8021C 19.9789 16.7368 20.0751 16.6404 20.23 16.4164L 18.5649 15.3086ZM 18.2762 15.6943C 18.0509 16.0363 17.8898 16.3557 17.7108 16.6689L 19.4481 17.6597C 19.654 17.2979 19.7816 17.0387 19.9413 16.8021L 18.2762 15.6943ZM 17.7049 16.6794C 17.4993 17.0549 17.3642 17.2338 17.1922 17.5184L 18.9081 18.5458C 19.0248 18.3483 19.1783 18.1416 19.454 17.6492L 17.7049 16.6794ZM 18.4638 17.1217C 14.5263 15.3325 11.456 12.3725 9.88088 8.53954L 8.03098 9.29973C 9.82409 13.6632 13.2978 16.971 17.6364 18.9425L 18.4638 17.1217ZM 9.40386 9.8137C 9.59633 9.71727 9.65497 9.68693 9.85726 9.60678L 9.11319 7.75034C 8.8343 7.86306 8.70047 7.92914 8.508 8.02557L 9.40386 9.8137ZM 9.93316 9.57263C 10.0926 9.49198 10.2802 9.41514 10.4952 9.31741C 10.7105 9.21916 10.9882 9.07677 11.2221 8.91317L 10.058 7.28681C 9.95507 7.36427 9.84787 7.41474 9.66618 7.4973C 9.48417 7.58038 9.26275 7.67229 9.03729 7.7845L 9.93316 9.57263ZM 11.088 8.99405C 11.359 8.85376 11.7328 8.56538 11.9699 8.2653L 10.3688 7.06685C 10.3337 7.1137 10.2721 7.16582 10.1921 7.20592L 11.088 8.99405ZM 11.8772 8.37247C 12.1975 8.05147 12.5543 7.52225 12.5543 6.74999L 10.5543 6.74999C 10.5543 6.81255 10.5418 6.84614 10.5321 6.86642C 10.5202 6.89128 10.4994 6.92175 10.4615 6.95968L 11.8772 8.37247ZM 12.5543 6.74999L 12.5543 2.89285L 10.5543 2.89285L 10.5543 6.74999L 12.5543 6.74999ZM 12.5543 2.89285C 12.5543 0.751393 10.8093 -1 8.66722 -1L 8.66722 1C 9.70093 1 10.5543 1.85218 10.5543 2.89285L 12.5543 2.89285ZM 8.66722 -1L 2.94124 -1L 2.94124 1L 8.66722 1L 8.66722 -1ZM 1.94124 0L 1.94124 0.0482319L 3.94124 0.0482319L 3.94124 0L 1.94124 0ZM 20.841 17.1643C 19.841 17.1642 19.841 17.1633 19.841 17.1623C 19.841 17.162 19.841 17.161 19.841 17.1603C 19.841 17.161 19.841 17.1551 19.841 17.1564C 19.841 17.1577 19.8411 17.1459 19.8411 17.1486C 19.841 17.1512 19.8416 17.1274 19.8415 17.1327C 19.8413 17.138 19.8436 17.0898 19.843 17.1005C 19.8423 17.1113 19.8522 17.0125 19.8495 17.0344C 19.8555 16.9896 19.8648 16.944 19.8778 16.8982C 19.9044 16.8051 19.9447 16.7182 19.9965 16.6403C 20.1014 16.4827 20.2262 16.402 20.2968 16.3666L 21.1927 18.1548C 21.3595 18.0712 21.5324 17.9423 21.6614 17.7485C 21.7203 17.6504 21.7843 17.5009 21.8011 17.4469C 21.8142 17.3967 21.8284 17.3232 21.832 17.2985C 21.8349 17.275 21.8381 17.2406 21.8389 17.2292C 21.8395 17.2181 21.8403 17.2016 21.8405 17.1962C 21.8406 17.1908 21.8408 17.1828 21.8408 17.1801C 21.8409 17.1774 21.8409 17.1735 21.8409 17.1722C 21.8409 17.1709 21.8409 17.1689 21.841 17.1682C 21.841 17.1676 21.841 17.1666 21.841 17.1663C 21.841 17.1653 21.841 17.1643 20.841 17.1643ZM 23.9205 28L 24.1129 28L 24.1129 26L 23.9205 26L 23.9205 28ZM 21.4524 17.9672L 21.5487 17.8708L 20.1332 16.4578L 20.037 16.5542L 21.4524 17.9672Z"/>
</defs>
</svg>
