<svg xmlns="http://www.w3.org/2000/svg" width="588" height="74" viewBox="0 0 588 74">
  <g fill="none">
    <g fill="#FCFCFC" transform="translate(418)">
      <path d="M46.417996,14.908001 C40.632004,12.278001 33.793998,12.278001 27.482004,14.908001 C21.696002,17.5379997 16.962004,21.7459995 14.332004,28.0579997 C13.28,31.2139999 12.227996,34.37 12.227996,37.526 C12.227996,40.6819999 12.753998,43.8379997 14.332004,46.9939999 C16.962004,52.78 21.17,57.5140005 27.482004,60.1440005 C30.637996,61.1959995 33.793998,62.248001 36.95,62.248001 C40.106002,62.248001 43.262004,61.721999 46.417996,60.1440005 C52.204008,57.5140005 56.937996,53.3059995 59.567996,46.9939999 C60.62,43.8379997 61.672004,40.6819999 61.672004,37.526 C61.672004,34.37 61.145992,31.2139999 59.567996,28.0579997 C56.937996,21.7459995 52.204008,17.0120003 46.417996,14.908001 Z M50.625992,42.7860001 C49.047996,46.4679997 46.417996,49.0979997 42.736002,50.6759995 C39.053998,52.2540005 34.846002,52.2540005 31.163998,50.6759995 C27.482004,49.0979997 24.852004,46.4679997 23.273998,42.7860001 C22.747996,41.2080001 22.222004,39.104 22.222004,37 C22.222004,34.896 22.747996,33.3180001 23.273998,31.2139999 C24.852004,27.5320003 27.482004,24.9020003 31.163998,23.3240005 C34.846002,21.7459995 39.053998,21.7459995 42.736002,23.3240005 C46.417996,24.9020003 49.047996,27.5320003 50.625992,31.2139999 C52.204008,34.896 52.204008,39.104 50.625992,42.7860001 Z"/>
      <path d="M70.614008,22.7979997 C66.932004,13.8559995 60.094008,7.018001 51.152004,3.3359995 C42.21,-0.345999498 31.69,-0.345999498 22.747996,3.3359995 C13.806002,7.018001 6.96799599,13.8559995 3.28600201,22.7979997 C1.18200401,27.5320003 0.13,32.2660001 0.656002007,37 C0.656002007,41.7339999 1.70799599,46.9939999 3.28600201,51.2020003 C6.96799599,60.1440005 13.806002,66.981999 22.747996,70.6640005 C31.69,74.3459995 42.21,74.3459995 51.152004,70.6640005 C60.094008,66.981999 67.457996,60.1440005 71.14,51.2020003 C73.244008,46.4679997 74.295992,41.7339999 73.77,37 C73.77,32.2660001 72.717996,27.0060001 70.614008,22.7979997 Z M61.672004,47.52 C59.042004,53.8320003 53.782004,59.091999 47.47,61.721999 C40.632004,64.351999 33.267996,64.351999 26.43,61.721999 C20.117996,59.091999 14.857996,53.8320003 12.227996,47.52 C10.65,44.3639999 10.123998,40.6819999 10.123998,37 C10.123998,33.3180001 10.65,29.6360001 12.227996,26.48 C14.857996,20.1679997 20.117996,14.908001 26.43,12.278001 C33.267996,9.648001 40.632004,9.648001 47.47,12.278001 C53.782004,14.908001 59.042004,20.1679997 61.672004,26.48 C63.25,29.6360001 63.775992,33.3180001 63.775992,37 C63.775992,40.6819999 63.25,44.3639999 61.672004,47.52 Z"/>
    </g>
    <path fill="#6539eb" d="M0.492004013,50.15 C2.07,50.6759995 4.17400803,51.2020003 5.75200401,51.2020003 C7.33,51.7279997 8.90799599,51.7279997 10.485992,52.2540005 C12.064008,52.2540005 14.167996,52.78 15.745992,52.78 C18.902004,52.78 20.48,51.7279997 20.48,49.0979997 C20.48,48.0459995 19.954008,46.9939999 18.902004,46.4679997 C17.85,44.89 16.797996,43.8379997 15.22,42.7860001 C14.167996,41.7339999 12.59,40.6819999 10.485992,39.104 C8.90799599,37.526 7.33,35.948 5.75200401,34.37 C4.17400803,32.2660001 3.12200401,30.6879997 2.07,28.0579997 C1.01799599,25.9540005 0.492004013,23.3240005 0.492004013,20.1679997 C0.492004013,17.0120003 1.01799599,14.381999 2.07,11.2259995 C3.64799599,9.121999 5.22599197,7.018001 7.33,5.44 C9.43400803,3.861999 12.064008,2.2840005 14.694008,1.231999 C17.85,0.705999498 20.48,0.18 23.635992,0.18 C25.214008,0.18 26.792004,0.18 28.895992,0.705999498 C28.895992,0.705999498 33.63,1.231999 33.63,1.231999 C33.63,1.231999 37.837996,1.758001 37.837996,1.758001 C37.837996,1.758001 37.837996,21.22 37.837996,21.22 C37.837996,21.22 35.734008,21.22 35.734008,21.22 C35.734008,21.22 34.155992,21.22 34.155992,21.22 C34.155992,21.22 32.052004,20.6940005 32.052004,20.6940005 C32.052004,20.6940005 30.474008,20.6940005 30.474008,20.6940005 C29.947996,20.6940005 29.422004,20.6940005 28.895992,20.6940005 C27.844008,20.6940005 27.317996,21.22 26.792004,21.7459995 C26.265992,22.2720003 26.265992,22.7979997 26.265992,23.3240005 C26.265992,23.85 26.792004,24.3759995 27.844008,25.4279997 C28.895992,26.48 29.947996,27.0060001 31.525992,28.5839999 C33.104008,30.1620003 34.682004,31.2139999 36.26,32.2660001 C37.837996,33.8439999 39.415992,35.4219999 40.994008,37.526 C41.52,39.63 42.572004,41.7339999 43.624008,43.8379997 C44.675992,46.4679997 45.202004,49.0979997 45.202004,51.7279997 C45.202004,54.8840005 44.675992,57.5140005 43.624008,60.1440005 C42.572004,62.7740005 40.994008,65.4040005 38.89,66.981999 C36.785992,69.0859995 34.155992,70.6640005 31,71.7159995 C27.317996,73.2940005 23.635992,73.82 19.954008,73.82 C17.324008,73.82 15.22,73.82 12.59,73.2940005 C10.485992,73.2940005 8.38200401,72.768001 6.80400803,72.241999 C5.22599197,71.7159995 2.59599197,71.7159995 0.492004013,71.19 C0.492004013,71.19 0.492004013,50.15 0.492004013,50.15 Z M9.43400803,62.7740005 C9.43400803,62.7740005 12.59,63.3 12.59,63.3 C12.59,63.3 15.745992,63.8259995 15.745992,63.8259995 C15.745992,63.8259995 18.902004,63.8259995 18.902004,63.8259995 C21.005992,63.8259995 23.11,63.8259995 24.687996,63.3 C26.792004,62.7740005 28.37,62.248001 29.947996,61.1959995 C31.525992,60.1440005 32.577996,58.5659995 33.63,56.9879997 C34.682004,54.8840005 34.682004,52.78 34.682004,50.6759995 C34.682004,48.5720003 34.155992,46.4679997 33.104008,44.89 C32.052004,43.3120003 31,41.2080001 29.422004,39.63 C27.844008,38.052 26.265992,36.474 24.162004,34.896 C22.057996,33.3180001 20.48,31.74 18.902004,30.1620003 C17.324008,29.11 15.745992,27.5320003 14.694008,25.4279997 C13.642004,24.3759995 13.115992,22.2720003 13.115992,20.6940005 C13.115992,18.59 14.167996,15.96 16.272004,14.908001 C18.375992,13.33 21.005992,12.8040005 24.162004,12.8040005 C24.162004,12.8040005 25.74,12.8040005 25.74,12.8040005 C25.74,12.8040005 27.317996,12.8040005 27.317996,12.8040005 C27.317996,12.8040005 28.895992,12.8040005 28.895992,12.8040005 C28.895992,12.8040005 28.895992,10.1740005 28.895992,10.1740005 C28.895992,10.1740005 27.317996,10.1740005 27.317996,10.1740005 C27.317996,10.1740005 25.74,10.1740005 25.74,10.1740005 C25.74,10.1740005 24.162004,10.1740005 24.162004,10.1740005 C21.005992,10.1740005 17.324008,10.7 14.694008,12.8040005 C12.064008,14.908001 11.012004,17.5379997 11.012004,20.6940005 C11.012004,22.7979997 11.537996,24.9020003 12.59,26.48 C13.642004,28.5839999 14.694008,30.1620003 16.272004,31.74 C17.85,33.3180001 19.427996,34.896 21.532004,36.474 C23.635992,38.052 25.214008,39.63 26.792004,41.2080001 C28.37,42.7860001 29.422004,44.3639999 30.474008,45.9420003 C32.052004,47.52 32.577996,49.6240005 32.577996,51.2020003 C32.577996,54.3579997 31.525992,56.9879997 28.895992,59.091999 C26.265992,61.1959995 22.584008,61.721999 19.427996,61.721999 C17.324008,61.721999 15.22,61.721999 13.115992,61.1959995 C13.115992,61.1959995 9.96,60.67 9.96,60.67 C9.96,60.67 9.43400803,62.7740005 9.43400803,62.7740005 Z M48.357996,37 C48.357996,31.74 49.41,26.48 51.514008,21.7459995 C53.617996,17.5379997 56.247996,13.33 59.404008,10.1740005 C62.56,7.018001 66.767996,4.388001 70.975992,2.81 C75.71,1.231999 80.444008,0.18 85.177996,0.18 C88.86,0.18 92.015992,0.705999498 95.697996,1.231999 C98.327996,1.758001 100.957996,2.81 103.587996,3.861999 C105.692004,4.9140005 108.322004,5.9659995 110.425992,7.5440005 C110.425992,7.5440005 99.38,27.0060001 99.38,27.0060001 C98.327996,25.9540005 96.75,25.4279997 95.697996,24.3759995 C94.12,23.85 93.067996,23.3240005 91.49,22.7979997 C89.912004,22.2720003 87.807996,21.7459995 86.23,21.7459995 C84.125992,21.7459995 82.022004,22.2720003 80.444008,22.7979997 C78.865992,23.3240005 77.287996,24.3759995 75.71,25.9540005 C74.132004,27.5320003 73.08,29.11 72.554008,30.6879997 C69.924008,37 70.975992,43.3120003 75.71,47.52 C77.287996,49.0979997 78.865992,50.15 80.444008,50.6759995 C82.547996,51.7279997 84.652004,51.7279997 86.755992,51.7279997 C88.86,51.7279997 90.964008,51.7279997 92.542004,50.6759995 C94.12,50.15 95.697996,49.6240005 96.75,48.5720003 C98.327996,48.0459995 99.38,46.9939999 100.432004,45.9420003 C100.432004,45.9420003 111.477996,65.4040005 111.477996,65.4040005 C109.374008,66.981999 107.27,68.56 104.64,69.611999 C102.01,70.6640005 99.38,71.7159995 96.75,72.241999 C93.594008,73.2940005 89.912004,73.82 86.23,73.82 C80.97,73.82 75.71,72.768001 70.975992,71.19 C66.767996,69.611999 62.56,66.981999 58.877996,63.8259995 C55.722004,60.67 52.565992,56.4620003 50.987996,52.2540005 C49.41,46.9939999 48.357996,42.26 48.357996,37 Z M61.507996,37 C61.507996,33.8439999 62.034008,30.6879997 63.612004,27.5320003 C64.664008,24.9020003 66.242004,22.2720003 68.345992,19.6420003 C70.45,17.5379997 73.08,15.4340005 76.235992,14.381999 C79.392004,13.33 83.074008,12.278001 86.23,12.278001 C87.807996,12.278001 89.385992,12.278001 90.964008,12.8040005 C92.015992,12.8040005 93.594008,13.33 94.645992,13.8559995 C95.697996,14.381999 96.75,14.381999 97.802004,14.908001 C97.802004,14.908001 99.38,12.278001 99.38,12.278001 C98.327996,11.751999 97.275992,11.2259995 95.697996,10.7 C94.12,11.2259995 93.067996,10.7 91.49,10.7 C89.912004,10.1740005 87.807996,10.1740005 86.23,10.1740005 C82.547996,10.1740005 78.865992,10.7 75.71,12.278001 C72.554008,13.33 69.397996,15.4340005 67.294008,17.5379997 C64.664008,20.1679997 62.56,22.7979997 61.507996,25.9540005 C59.93,29.6360001 59.404008,33.3180001 59.404008,37 C59.404008,40.6819999 59.93,44.3639999 61.507996,48.0459995 C63.085992,51.2020003 64.664008,54.3579997 67.294008,56.4620003 C69.924008,58.5659995 73.08,60.67 76.235992,61.721999 C79.392004,62.7740005 83.074008,63.8259995 86.755992,63.8259995 C88.86,63.8259995 90.437996,63.8259995 92.542004,63.3 C94.12,62.7740005 95.697996,62.7740005 96.75,62.248001 C97.802004,61.721999 99.38,61.1959995 100.432004,60.67 C100.432004,60.67 98.854008,58.04 98.854008,58.04 C97.802004,58.5659995 96.75,59.091999 95.697996,59.618001 C94.645992,60.1440005 93.067996,60.67 92.015992,60.67 C90.437996,61.1959995 88.334008,61.1959995 86.755992,61.1959995 C83.074008,61.1959995 79.392004,60.67 76.235992,59.091999 C73.08,58.04 70.45,55.9359995 68.345992,53.8320003 C66.242004,51.7279997 64.664008,49.0979997 63.612004,46.4679997 C62.56,43.3120003 61.507996,40.1560001 61.507996,37 Z M118.842004,1.758001 C118.842004,1.758001 143.037996,1.758001 143.037996,1.758001 C147.246002,1.758001 151.453998,2.2840005 155.662004,3.3359995 C159.343998,4.388001 162.5,5.9659995 165.656002,8.5959995 C168.286002,10.7 170.916002,13.8559995 171.967996,17.0120003 C173.546002,21.22 174.072004,25.4279997 174.072004,29.11 C174.072004,32.2660001 173.546002,35.4219999 172.493998,38.052 C171.442004,40.1560001 170.39,42.26 169.337996,44.3639999 C167.76,45.9420003 166.182004,47.52 164.603998,49.0979997 C164.603998,49.0979997 177.753998,72.241999 177.753998,72.241999 C177.753998,72.241999 151.453998,72.241999 151.453998,72.241999 C151.453998,72.241999 140.933998,54.3579997 140.933998,54.3579997 C140.933998,54.3579997 140.933998,72.241999 140.933998,72.241999 C140.933998,72.241999 118.842004,72.241999 118.842004,72.241999 C118.842004,72.241999 118.842004,1.758001 118.842004,1.758001 Z M140.407996,47.52 C143.037996,47.52 145.667996,46.9939999 148.297996,46.4679997 C148.297996,46.4679997 158.292004,63.3 158.292004,63.3 C158.292004,63.3 161.447996,63.3 161.447996,63.3 C161.447996,63.3 150.927996,45.4160001 150.927996,45.4160001 C154.61,44.3639999 157.766002,42.26 159.87,39.104 C161.973998,35.948 163.552004,32.2660001 163.026002,28.5839999 C163.026002,25.9540005 162.5,22.7979997 161.447996,20.6940005 C160.396002,18.59 158.817996,16.4859995 156.713998,14.908001 C154.61,13.33 151.98,12.278001 149.35,11.2259995 C146.72,10.7 143.563998,10.7 140.407996,10.7 C140.407996,10.7 128.836002,10.7 128.836002,10.7 C128.836002,10.7 128.836002,63.8259995 128.836002,63.8259995 C128.836002,63.8259995 131.992004,63.8259995 131.992004,63.8259995 C131.992004,63.8259995 131.992004,47.52 131.992004,47.52 C131.992004,47.52 140.407996,47.52 140.407996,47.52 Z M131.992004,44.89 C131.992004,44.89 131.992004,12.8040005 131.992004,12.8040005 C131.992004,12.8040005 140.407996,12.8040005 140.407996,12.8040005 C145.667996,12.278001 150.927996,13.8559995 155.662004,17.0120003 C159.343998,20.1679997 161.447996,24.3759995 160.922004,29.11 C161.447996,33.8439999 159.343998,38.052 155.662004,41.2080001 C151.453998,44.3639999 146.193998,45.4160001 140.407996,45.4160001 C140.407996,45.4160001 131.992004,45.4160001 131.992004,45.4160001 C131.992004,45.4160001 131.992004,44.89 131.992004,44.89 Z M140.933998,36.474 C140.933998,36.474 142.512004,36.474 142.512004,36.474 C145.142004,36.474 147.246002,35.948 149.35,34.896 C151.453998,33.3180001 152.506002,31.2139999 151.98,29.11 C151.98,27.0060001 150.927996,24.3759995 149.35,23.3240005 C147.246002,21.22 145.142004,20.6940005 142.512004,20.6940005 C142.512004,20.6940005 141.46,20.6940005 141.46,20.6940005 C141.46,20.6940005 140.933998,36.474 140.933998,36.474 Z M184.066002,1.758001 C184.066002,1.758001 225.62,1.758001 225.62,1.758001 C225.62,1.758001 225.62,20.1679997 225.62,20.1679997 C225.62,20.1679997 206.683998,20.1679997 206.683998,20.1679997 C206.683998,20.1679997 206.683998,28.0579997 206.683998,28.0579997 C206.683998,28.0579997 225.093998,28.0579997 225.093998,28.0579997 C225.093998,28.0579997 225.093998,45.4160001 225.093998,45.4160001 C225.093998,45.4160001 206.683998,45.4160001 206.683998,45.4160001 C206.683998,45.4160001 206.683998,53.3059995 206.683998,53.3059995 C206.683998,53.3059995 226.146002,53.3059995 226.146002,53.3059995 C226.146002,53.3059995 226.146002,71.7159995 226.146002,71.7159995 C226.146002,71.7159995 184.066002,71.7159995 184.066002,71.7159995 C184.066002,71.7159995 184.066002,1.758001 184.066002,1.758001 Z M218.781999,63.8259995 C218.781999,63.8259995 218.781999,61.1959995 218.781999,61.1959995 C218.781999,61.1959995 197.742004,61.1959995 197.742004,61.1959995 C197.742004,61.1959995 197.742004,38.052 197.742004,38.052 C197.742004,38.052 217.73,38.052 217.73,38.052 C217.73,38.052 217.73,35.4219999 217.73,35.4219999 C217.73,35.4219999 197.742004,35.4219999 197.742004,35.4219999 C197.742004,35.4219999 197.742004,12.8040005 197.742004,12.8040005 C197.742004,12.8040005 218.781999,12.8040005 218.781999,12.8040005 C218.781999,12.8040005 218.781999,10.1740005 218.781999,10.1740005 C218.781999,10.1740005 195.112004,10.1740005 195.112004,10.1740005 C195.112004,10.1740005 195.112004,63.3 195.112004,63.3 C195.112004,63.3 218.781999,63.8259995 218.781999,63.8259995 Z M234.561999,1.758001 C234.561999,1.758001 276.115999,1.758001 276.115999,1.758001 C276.115999,1.758001 276.115999,20.1679997 276.115999,20.1679997 C276.115999,20.1679997 257.18,20.1679997 257.18,20.1679997 C257.18,20.1679997 257.18,28.0579997 257.18,28.0579997 C257.18,28.0579997 275.59,28.0579997 275.59,28.0579997 C275.59,28.0579997 275.59,45.4160001 275.59,45.4160001 C275.59,45.4160001 257.18,45.4160001 257.18,45.4160001 C257.18,45.4160001 257.18,53.3059995 257.18,53.3059995 C257.18,53.3059995 276.642,53.3059995 276.642,53.3059995 C276.642,53.3059995 276.642,71.7159995 276.642,71.7159995 C276.642,71.7159995 234.561999,71.7159995 234.561999,71.7159995 C234.561999,71.7159995 234.561999,1.758001 234.561999,1.758001 Z M269.278001,63.8259995 C269.278001,63.8259995 269.278001,61.1959995 269.278001,61.1959995 C269.278001,61.1959995 248.238001,61.1959995 248.238001,61.1959995 C248.238001,61.1959995 248.238001,38.052 248.238001,38.052 C248.238001,38.052 268.225999,38.052 268.225999,38.052 C268.225999,38.052 268.225999,35.4219999 268.225999,35.4219999 C268.225999,35.4219999 248.238001,35.4219999 248.238001,35.4219999 C248.238001,35.4219999 248.238001,12.8040005 248.238001,12.8040005 C248.238001,12.8040005 269.278001,12.8040005 269.278001,12.8040005 C269.278001,12.8040005 269.278001,10.1740005 269.278001,10.1740005 C269.278001,10.1740005 245.608001,10.1740005 245.608001,10.1740005 C245.608001,10.1740005 245.608001,63.3 245.608001,63.3 C245.608001,63.3 269.278001,63.8259995 269.278001,63.8259995 Z M285.058,1.758001 C285.058,1.758001 303.468,1.758001 303.468,1.758001 C303.468,1.758001 322.93,28.5839999 322.93,28.5839999 C322.93,28.5839999 322.93,1.758001 322.93,1.758001 C322.93,1.758001 345.021999,1.758001 345.021999,1.758001 C345.021999,1.758001 345.021999,71.7159995 345.021999,71.7159995 C345.021999,71.7159995 326.611999,71.7159995 326.611999,71.7159995 C326.611999,71.7159995 307.15,44.89 307.15,44.89 C307.15,44.89 307.15,71.7159995 307.15,71.7159995 C307.15,71.7159995 285.058,71.7159995 285.058,71.7159995 C285.058,71.7159995 285.058,1.758001 285.058,1.758001 Z M297.682,63.8259995 C297.682,63.8259995 297.682,14.908001 297.682,14.908001 C297.682,14.908001 332.398001,63.3 332.398001,63.3 C332.398001,63.3 335.028001,63.3 335.028001,63.3 C335.028001,63.3 335.028001,10.1740005 335.028001,10.1740005 C335.028001,10.1740005 332.398001,10.1740005 332.398001,10.1740005 C332.398001,10.1740005 332.398001,58.5659995 332.398001,58.5659995 C332.398001,58.5659995 297.682,10.1740005 297.682,10.1740005 C297.682,10.1740005 295.052,10.1740005 295.052,10.1740005 C295.052,10.1740005 295.052,63.3 295.052,63.3 C295.052,63.3 297.682,63.8259995 297.682,63.8259995 Z M354.49,1.758001 C354.49,1.758001 377.108001,1.758001 377.108001,1.758001 C377.108001,1.758001 377.108001,25.4279997 377.108001,25.4279997 C377.108001,25.4279997 389.732004,25.4279997 389.732004,25.4279997 C389.732004,25.4279997 389.732004,1.758001 389.732004,1.758001 C389.732004,1.758001 412.35,1.758001 412.35,1.758001 C412.35,1.758001 412.35,71.7159995 412.35,71.7159995 C412.35,71.7159995 389.732004,71.7159995 389.732004,71.7159995 C389.732004,71.7159995 389.732004,45.9420003 389.732004,45.9420003 C389.732004,45.9420003 377.108001,45.9420003 377.108001,45.9420003 C377.108001,45.9420003 377.108001,71.7159995 377.108001,71.7159995 C377.108001,71.7159995 354.49,71.7159995 354.49,71.7159995 C354.49,71.7159995 354.49,1.758001 354.49,1.758001 Z M367.64,63.8259995 C367.64,63.8259995 367.64,37 367.64,37 C367.64,37 398.673998,37 398.673998,37 C398.673998,37 398.673998,63.8259995 398.673998,63.8259995 C398.673998,63.8259995 401.303998,63.8259995 401.303998,63.8259995 C401.303998,63.8259995 401.303998,10.1740005 401.303998,10.1740005 C401.303998,10.1740005 398.673998,10.1740005 398.673998,10.1740005 C398.673998,10.1740005 398.673998,34.37 398.673998,34.37 C398.673998,34.37 367.64,34.37 367.64,34.37 C367.64,34.37 367.64,10.1740005 367.64,10.1740005 C367.64,10.1740005 365.01,10.1740005 365.01,10.1740005 C365.01,10.1740005 365.01,63.3 365.01,63.3 C365.01,63.3 367.64,63.8259995 367.64,63.8259995 Z M497.035992,1.758001 C497.035992,1.758001 520.18,1.758001 520.18,1.758001 C520.18,1.758001 520.18,53.3059995 520.18,53.3059995 C520.18,53.3059995 539.642004,53.3059995 539.642004,53.3059995 C539.642004,53.3059995 539.642004,71.7159995 539.642004,71.7159995 C539.642004,71.7159995 497.035992,71.7159995 497.035992,71.7159995 C497.035992,71.7159995 497.035992,1.758001 497.035992,1.758001 Z M533.855992,63.8259995 C533.855992,63.8259995 533.855992,61.1959995 533.855992,61.1959995 C533.855992,61.1959995 510.185992,61.1959995 510.185992,61.1959995 C510.185992,61.1959995 510.185992,10.1740005 510.185992,10.1740005 C510.185992,10.1740005 507.555992,10.1740005 507.555992,10.1740005 C507.555992,10.1740005 507.555992,63.3 507.555992,63.3 C507.555992,63.3 533.855992,63.8259995 533.855992,63.8259995 Z M545.427996,1.758001 C545.427996,1.758001 586.982004,1.758001 586.982004,1.758001 C586.982004,1.758001 586.982004,20.1679997 586.982004,20.1679997 C586.982004,20.1679997 568.045992,20.1679997 568.045992,20.1679997 C568.045992,20.1679997 568.045992,28.0579997 568.045992,28.0579997 C568.045992,28.0579997 586.455992,28.0579997 586.455992,28.0579997 C586.455992,28.0579997 586.455992,45.4160001 586.455992,45.4160001 C586.455992,45.4160001 568.045992,45.4160001 568.045992,45.4160001 C568.045992,45.4160001 568.045992,53.3059995 568.045992,53.3059995 C568.045992,53.3059995 587.507996,53.3059995 587.507996,53.3059995 C587.507996,53.3059995 587.507996,71.7159995 587.507996,71.7159995 C587.507996,71.7159995 545.427996,71.7159995 545.427996,71.7159995 C545.427996,71.7159995 545.427996,1.758001 545.427996,1.758001 Z M580.144008,63.8259995 C580.144008,63.8259995 580.144008,61.1959995 580.144008,61.1959995 C580.144008,61.1959995 559.104008,61.1959995 559.104008,61.1959995 C559.104008,61.1959995 559.104008,38.052 559.104008,38.052 C559.104008,38.052 579.092004,38.052 579.092004,38.052 C579.092004,38.052 579.092004,35.4219999 579.092004,35.4219999 C579.092004,35.4219999 559.104008,35.4219999 559.104008,35.4219999 C559.104008,35.4219999 559.104008,12.8040005 559.104008,12.8040005 C559.104008,12.8040005 580.144008,12.8040005 580.144008,12.8040005 C580.144008,12.8040005 580.144008,10.1740005 580.144008,10.1740005 C580.144008,10.1740005 556.474008,10.1740005 556.474008,10.1740005 C556.474008,10.1740005 556.474008,63.3 556.474008,63.3 C556.474008,63.3 580.144008,63.8259995 580.144008,63.8259995 Z"/>
  </g>
</svg>
