<svg width="25" height="25" xmlns="http://www.w3.org/2000/svg" xmlns:xlink="http://www.w3.org/1999/xlink"><use xlink:href="#path0_fill" fill="#6539eb"/><use xlink:href="#path1_fill" transform="translate(13.42 5.45)" fill="#6FDC7B"/><use xlink:href="#path2_fill" transform="translate(13.46 .18)" fill="#6FDC7B"/><defs><path id="path0_fill" d="M2.723.045C1.253.045.05 1.205.006 2.634-.04 4.42.184 6.205.585 7.946A22.365 22.365 0 0 0 22.149 25h.178a.837.837 0 0 0 .356-.09C23.975 24.733 25 23.66 25 22.323v-5.358a2.684 2.684 0 0 0-2.673-2.678h-3.565c-.623 0-.712.268-.801.402-.09.133-.179.223-.268.357-.178.268-.312.535-.49.848-.223.402-.356.58-.49.803-3.832-1.74-6.861-4.642-8.42-8.437a5.22 5.22 0 0 1 .49-.223c.356-.179.757-.313 1.069-.536.178-.09.356-.223.49-.402a1.16 1.16 0 0 0 .356-.848V2.679A2.684 2.684 0 0 0 8.025 0H2.723v.045zm0 1.785H8.07c.49 0 .89.402.89.893v3.304l-.044.044c-.178.134-.534.268-.89.447-.357.178-.714.312-1.026.49-.133.09-.311.18-.49.358a.834.834 0 0 0-.267.491c-.044.179 0 .402.09.625l-.045-.044c1.737 4.82 5.569 8.392 10.291 10.357.312.134.669.089.936-.134.58-.536.847-1.161 1.203-1.786.134-.268.312-.536.401-.714h3.163c.49 0 .891.401.891.893v5.357a.895.895 0 0 1-.89.893c-9.669 0-17.778-6.697-19.96-15.715a17.603 17.603 0 0 1-.535-4.821c.044-.536.4-.938.935-.938zm16.574 14.063s0 .044-.089.09l.09-.09z"/><path id="path1_fill" d="M0 .893C0 .402.401 0 .891 0c.134 0 .267.045.356.045 2.184.937 3.966 2.678 4.857 4.91V5a.907.907 0 0 1-.49 1.16.904.904 0 0 1-1.159-.49C3.742 3.884 2.361 2.455.58 1.74A.916.916 0 0 1 0 .893z"/><path id="path2_fill" d="M.003.937A.845.845 0 0 1 .85 0h.178c5.347.848 9.58 5.09 10.381 10.446v.045c.09.447-.312.893-.757.982-.446.09-.936-.268-.98-.759A10.695 10.695 0 0 0 .76 1.786.867.867 0 0 1 .003.937z"/></defs></svg>
