<?xml version="1.0" encoding="utf-8"?>
<!-- Generator: Adobe Illustrator 22.0.0, SVG Export Plug-In . SVG Version: 6.00 Build 0)  -->
<!DOCTYPE svg PUBLIC "-//W3C//DTD SVG 1.1//EN" "http://www.w3.org/Graphics/SVG/1.1/DTD/svg11.dtd">
<svg version="1.1" id="Layer_1" xmlns="http://www.w3.org/2000/svg" xmlns:xlink="http://www.w3.org/1999/xlink" x="0px" y="0px"
	 viewBox="0 0 111.6 14" style="enable-background:new 0 0 111.6 14;" xml:space="preserve">
<style type="text/css">
	.st0{fill:#6A40EE;}
	.st1{fill:none;}
	.st2{fill:#FCFCFC;}
</style>
<title>Asset 1</title>
<path class="st0" d="M0,9.5c0.3,0.1,0.7,0.2,1,0.2c0.3,0.1,0.6,0.1,0.9,0.2c0.3,0,0.7,0.1,1,0.1c0.6,0,0.9-0.2,0.9-0.7
	c0-0.2-0.1-0.4-0.3-0.5C3.3,8.5,3.1,8.3,2.8,8.1C2.6,7.9,2.3,7.7,1.9,7.4C1.6,7.1,1.3,6.8,1,6.5C0.7,6.1,0.5,5.8,0.3,5.3
	C0.1,4.9,0,4.4,0,3.8c0-0.6,0.1-1.1,0.3-1.7C0.6,1.7,0.9,1.3,1.3,1c0.4-0.3,0.9-0.6,1.4-0.8C3.3,0.1,3.8,0,4.4,0c0.3,0,0.6,0,1,0.1
	l0.9,0.1l0.8,0.1V4H6.7H6.4L6,3.9H5.7c-0.1,0-0.2,0-0.3,0C5.2,3.9,5.1,4,5,4.1C4.9,4.2,4.9,4.3,4.9,4.4c0,0.1,0.1,0.2,0.3,0.4
	s0.4,0.3,0.7,0.6s0.6,0.5,0.9,0.7c0.3,0.3,0.6,0.6,0.9,1C7.8,7.5,8,7.9,8.2,8.3c0.2,0.5,0.3,1,0.3,1.5c0,0.6-0.1,1.1-0.3,1.6
	c-0.2,0.5-0.5,1-0.9,1.3c-0.4,0.4-0.9,0.7-1.5,0.9C5.1,13.9,4.4,14,3.7,14c-0.5,0-0.9,0-1.4-0.1c-0.4,0-0.8-0.1-1.1-0.2
	S0.4,13.6,0,13.5V9.5z M1.7,11.9L2.3,12l0.6,0.1h0.6c0.4,0,0.8,0,1.1-0.1c0.4-0.1,0.7-0.2,1-0.4c0.3-0.2,0.5-0.5,0.7-0.8
	c0.2-0.4,0.2-0.8,0.2-1.2c0-0.4-0.1-0.8-0.3-1.1C6,8.2,5.8,7.8,5.5,7.5c-0.3-0.3-0.6-0.6-1-0.9C4.1,6.3,3.8,6,3.5,5.7
	C3.2,5.5,2.9,5.2,2.7,4.8C2.5,4.6,2.4,4.2,2.4,3.9C2.4,3.5,2.6,3,3,2.8c0.4-0.3,0.9-0.4,1.5-0.4h0.3h0.3h0.3V1.9H5.1H4.8H4.5
	c-0.6,0-1.3,0.1-1.8,0.5C2.2,2.8,2,3.3,2,3.9C2,4.3,2.1,4.7,2.3,5C2.5,5.4,2.7,5.7,3,6c0.3,0.3,0.6,0.6,1,0.9s0.7,0.6,1,0.9
	c0.3,0.3,0.5,0.6,0.7,0.9C6,9,6.1,9.4,6.1,9.7c0,0.6-0.2,1.1-0.7,1.5c-0.5,0.4-1.2,0.5-1.8,0.5c-0.4,0-0.8,0-1.2-0.1l-0.6-0.1
	L1.7,11.9z"/>
<path class="st0" d="M9.1,7c0-1,0.2-2,0.6-2.9c0.4-0.8,0.9-1.6,1.5-2.2c0.6-0.6,1.4-1.1,2.2-1.4C14.3,0.2,15.2,0,16.1,0
	c0.7,0,1.3,0.1,2,0.2c0.5,0.1,1,0.3,1.5,0.5c0.4,0.2,0.9,0.4,1.3,0.7l-2.1,3.7c-0.2-0.2-0.5-0.3-0.7-0.5c-0.3-0.1-0.5-0.2-0.8-0.3
	c-0.3-0.1-0.7-0.2-1-0.2c-0.4,0-0.8,0.1-1.1,0.2c-0.3,0.1-0.6,0.3-0.9,0.6c-0.3,0.3-0.5,0.6-0.6,0.9C13.2,7,13.4,8.2,14.3,9
	c0.3,0.3,0.6,0.5,0.9,0.6c0.4,0.2,0.8,0.2,1.2,0.2c0.4,0,0.8,0,1.1-0.2c0.3-0.1,0.6-0.2,0.8-0.4c0.3-0.1,0.5-0.3,0.7-0.5l2.1,3.7
	c-0.4,0.3-0.8,0.6-1.3,0.8c-0.5,0.2-1,0.4-1.5,0.5C17.7,13.9,17,14,16.3,14c-1,0-2-0.2-2.9-0.5c-0.8-0.3-1.6-0.8-2.3-1.4
	c-0.6-0.6-1.2-1.4-1.5-2.2C9.3,8.9,9.1,8,9.1,7z M11.6,7c0-0.6,0.1-1.2,0.4-1.8c0.2-0.5,0.5-1,0.9-1.5c0.4-0.4,0.9-0.8,1.5-1
	c0.6-0.2,1.3-0.4,1.9-0.4c0.3,0,0.6,0,0.9,0.1c0.2,0,0.5,0.1,0.7,0.2c0.2,0.1,0.4,0.1,0.6,0.2l0.3-0.5c-0.2-0.1-0.4-0.2-0.7-0.3
	C17.8,2.1,17.6,2,17.3,2c-0.3-0.1-0.7-0.1-1-0.1c-0.7,0-1.4,0.1-2,0.4c-0.6,0.2-1.2,0.6-1.6,1c-0.5,0.5-0.9,1-1.1,1.6
	c-0.3,0.7-0.4,1.4-0.4,2.1c0,0.7,0.1,1.4,0.4,2.1c0.3,0.6,0.6,1.2,1.1,1.6c0.5,0.4,1.1,0.8,1.7,1c0.6,0.2,1.3,0.4,2,0.4
	c0.4,0,0.7,0,1.1-0.1c0.3-0.1,0.6-0.1,0.8-0.2c0.2-0.1,0.5-0.2,0.7-0.3L18.7,11c-0.2,0.1-0.4,0.2-0.6,0.3c-0.2,0.1-0.5,0.2-0.7,0.2
	c-0.3,0.1-0.7,0.1-1,0.1c-0.7,0-1.4-0.1-2-0.4c-0.6-0.2-1.1-0.6-1.5-1c-0.4-0.4-0.7-0.9-0.9-1.4C11.8,8.2,11.6,7.6,11.6,7z"/>
<path class="st0" d="M22.5,0.3h4.6c0.8,0,1.6,0.1,2.4,0.3c0.7,0.2,1.3,0.5,1.9,1c0.5,0.4,1,1,1.2,1.6C32.9,4,33,4.8,33,5.5
	c0,0.6-0.1,1.2-0.3,1.7c-0.2,0.4-0.4,0.8-0.6,1.2c-0.3,0.3-0.6,0.6-0.9,0.9l2.5,4.4h-5l-2-3.4v3.4h-4.2V0.3z M26.6,9
	c0.5,0,1-0.1,1.5-0.2l1.9,3.2h0.6l-2-3.4c0.7-0.2,1.3-0.6,1.7-1.2c0.4-0.6,0.7-1.3,0.6-2c0-0.5-0.1-1.1-0.3-1.5
	c-0.2-0.4-0.5-0.8-0.9-1.1c-0.4-0.3-0.9-0.5-1.4-0.7C27.8,2,27.2,2,26.6,2h-2.2v10.1H25V9H26.6z M25,8.5V2.4h1.6
	c1-0.1,2,0.2,2.9,0.8c0.7,0.6,1.1,1.4,1,2.3c0.1,0.9-0.3,1.7-1,2.3c-0.8,0.6-1.8,0.8-2.9,0.8H25z M26.7,6.9H27
	c0.5,0,0.9-0.1,1.3-0.3c0.4-0.3,0.6-0.7,0.5-1.1c0-0.4-0.2-0.9-0.5-1.1C27.9,4,27.5,3.9,27,3.9h-0.2L26.7,6.9z"/>
<path class="st0" d="M34.9,0.3h7.9v3.5h-3.6v1.5h3.5v3.3h-3.5v1.5h3.7v3.5h-8L34.9,0.3z M41.5,12.1v-0.5h-4V7.2h3.8V6.7h-3.8V2.4h4
	V1.9h-4.5v10.1L41.5,12.1z"/>
<path class="st0" d="M44.5,0.3h7.9v3.5h-3.6v1.5h3.5v3.3h-3.5v1.5h3.7v3.5h-8V0.3z M51.1,12.1v-0.5h-4V7.2h3.8V6.7h-3.8V2.4h4V1.9
	h-4.5v10.1L51.1,12.1z"/>
<path class="st0" d="M54.1,0.3h3.5l3.7,5.1V0.3h4.2v13.3H62l-3.7-5.1v5.1h-4.2V0.3z M56.5,12.1V2.8l6.6,9.2h0.5V1.9h-0.5v9.2
	l-6.6-9.2H56v10.1L56.5,12.1z"/>
<path class="st0" d="M67.3,0.3h4.3v4.5h2.4V0.3h4.3v13.3h-4.3V8.7h-2.4v4.9h-4.3V0.3z M69.8,12.1V7h5.9v5.1h0.5V1.9h-0.5v4.6h-5.9
	V1.9h-0.5v10.1L69.8,12.1z"/>
<path class="st1" d="M87.4,4.4c-0.7-0.3-1.5-0.3-2.2,0c-0.7,0.3-1.2,0.8-1.5,1.5c-0.1,0.3-0.2,0.7-0.2,1.1c0,0.4,0.1,0.7,0.2,1.1
	c0.3,0.7,0.8,1.2,1.5,1.5c0.7,0.3,1.5,0.3,2.2,0c0.7-0.3,1.2-0.8,1.5-1.5c0.3-0.7,0.3-1.5,0-2.2C88.6,5.2,88.1,4.7,87.4,4.4z"/>
<path class="st1" d="M88.3,2.3c-1.3-0.5-2.7-0.5-4,0c-1.2,0.5-2.2,1.5-2.7,2.7c-0.3,0.6-0.4,1.3-0.4,2c0,0.7,0.1,1.4,0.4,2
	c0.5,1.2,1.5,2.2,2.7,2.7c1.3,0.5,2.7,0.5,4,0c1.2-0.5,2.2-1.5,2.7-2.7c0.3-0.6,0.4-1.3,0.4-2c0-0.7-0.1-1.4-0.4-2
	C90.5,3.8,89.5,2.8,88.3,2.3z M90.6,8.8c-0.5,1.1-1.3,2-2.5,2.5c-0.6,0.2-1.2,0.4-1.8,0.4c-0.6,0-1.2-0.1-1.8-0.4
	c-1.1-0.5-2-1.3-2.5-2.5c-0.2-0.6-0.4-1.2-0.4-1.8c0-0.6,0.1-1.2,0.4-1.8c0.5-1.1,1.3-2,2.5-2.5c1.1-0.5,2.4-0.5,3.6,0
	c1.1,0.5,2,1.3,2.5,2.5c0.2,0.6,0.4,1.2,0.4,1.8C90.9,7.6,90.8,8.2,90.6,8.8z"/>
<path class="st2" d="M88.1,2.8c-1.1-0.5-2.4-0.5-3.6,0c-1.1,0.5-2,1.3-2.5,2.5c-0.2,0.6-0.4,1.2-0.4,1.8c0,0.6,0.1,1.2,0.4,1.8
	c0.5,1.1,1.3,2,2.5,2.5c0.6,0.2,1.2,0.4,1.8,0.4c0.6,0,1.2-0.1,1.8-0.4c1.1-0.5,2-1.3,2.5-2.5c0.2-0.6,0.4-1.2,0.4-1.8
	c0-0.6-0.1-1.2-0.4-1.8C90.1,4.1,89.2,3.2,88.1,2.8z M88.9,8.1c-0.3,0.7-0.8,1.2-1.5,1.5c-0.7,0.3-1.5,0.3-2.2,0
	c-0.7-0.3-1.2-0.8-1.5-1.5c-0.1-0.3-0.2-0.7-0.2-1.1c0-0.4,0.1-0.7,0.2-1.1c0.3-0.7,0.8-1.2,1.5-1.5c0.7-0.3,1.5-0.3,2.2,0
	c0.7,0.3,1.2,0.8,1.5,1.5C89.2,6.6,89.2,7.4,88.9,8.1z"/>
<path class="st2" d="M92.7,4.3c-0.7-1.7-2-3-3.7-3.7c-1.7-0.7-3.7-0.7-5.4,0c-1.7,0.7-3,2-3.7,3.7c-0.4,0.9-0.6,1.8-0.5,2.7
	c0,0.9,0.2,1.9,0.5,2.7c0.7,1.7,2,3,3.7,3.7c1.7,0.7,3.7,0.7,5.4,0c1.7-0.7,3.1-2,3.8-3.7c0.4-0.9,0.6-1.8,0.5-2.7
	C93.3,6.1,93.1,5.1,92.7,4.3z M91,9c-0.5,1.2-1.5,2.2-2.7,2.7c-1.3,0.5-2.7,0.5-4,0c-1.2-0.5-2.2-1.5-2.7-2.7
	c-0.3-0.6-0.4-1.3-0.4-2c0-0.7,0.1-1.4,0.4-2c0.5-1.2,1.5-2.2,2.7-2.7c1.3-0.5,2.7-0.5,4,0C89.5,2.8,90.5,3.8,91,5
	c0.3,0.6,0.4,1.3,0.4,2C91.4,7.7,91.3,8.4,91,9z"/>
<path class="st0" d="M94.4,0.3h4.4v9.8h3.7v3.5h-8.1V0.3z M101.4,12.1v-0.5h-4.5V1.9h-0.5v10.1L101.4,12.1z"/>
<path class="st0" d="M103.6,0.3h7.9v3.5h-3.6v1.5h3.5v3.3h-3.5v1.5h3.7v3.5h-8V0.3z M110.2,12.1v-0.5h-4V7.2h3.8V6.7h-3.8V2.4h4V1.9
	h-4.5v10.1L110.2,12.1z"/>
</svg>
